<mxfile host="app.diagrams.net" agent="Mozilla/5.0 (X11; Linux x86_64) AppleWebKit/537.36 (KHTML, like Gecko) Chrome/136.0.0.0 Safari/537.36" version="28.0.7">
  <diagram name="Page-1" id="eMb-FC3zcClJw4hazO4y">
    <mxGraphModel grid="0" page="1" gridSize="10" guides="1" tooltips="1" connect="1" arrows="1" fold="1" pageScale="1" pageWidth="850" pageHeight="1100" math="0" shadow="0">
      <root>
        <mxCell id="0" />
        <mxCell id="1" parent="0" />
        <mxCell id="Ur9ymTX70aR9tCa4kkiK-61" value="" style="group;fontSize=12;" connectable="0" vertex="1" parent="1">
          <mxGeometry x="324" y="131" width="178" height="391" as="geometry" />
        </mxCell>
        <mxCell id="Ur9ymTX70aR9tCa4kkiK-15" value="" style="rounded=1;whiteSpace=wrap;html=1;align=center;verticalAlign=middle;fontFamily=Helvetica;fontSize=11;labelBackgroundColor=default;resizable=1;fillColor=none;gradientColor=#ffa500;strokeColor=#B9E0A5;movable=1;rotatable=1;deletable=1;editable=1;locked=0;connectable=1;" vertex="1" parent="Ur9ymTX70aR9tCa4kkiK-61">
          <mxGeometry x="9" y="-45" width="160" height="203" as="geometry" />
        </mxCell>
        <mxCell id="Ur9ymTX70aR9tCa4kkiK-62" value="" style="group" connectable="0" vertex="1" parent="Ur9ymTX70aR9tCa4kkiK-61">
          <mxGeometry x="6" y="-25" width="146" height="86" as="geometry" />
        </mxCell>
        <mxCell id="Ur9ymTX70aR9tCa4kkiK-63" value="&lt;font style=&quot;color: rgb(126, 166, 224);&quot;&gt;Top Half Module&lt;/font&gt;" style="rounded=1;whiteSpace=wrap;html=1;labelPosition=center;verticalLabelPosition=top;align=center;verticalAlign=bottom;fontSize=9;fillColor=#dae8fc;gradientColor=#7ea6e0;strokeColor=#6c8ebf;spacing=0;" vertex="1" parent="Ur9ymTX70aR9tCa4kkiK-62">
          <mxGeometry x="14" y="11" width="137" height="38" as="geometry" />
        </mxCell>
        <mxCell id="Ur9ymTX70aR9tCa4kkiK-64" value="&lt;font style=&quot;color: rgb(153, 153, 153);&quot;&gt;1&lt;/font&gt;" style="rounded=1;whiteSpace=wrap;html=1;fillColor=#d5e8d4;strokeColor=#82b366;opacity=80;" vertex="1" parent="Ur9ymTX70aR9tCa4kkiK-62">
          <mxGeometry x="19" y="15" width="30" height="30" as="geometry" />
        </mxCell>
        <mxCell id="Ur9ymTX70aR9tCa4kkiK-65" value="&lt;font style=&quot;color: rgb(153, 153, 153);&quot;&gt;2&lt;/font&gt;" style="rounded=1;whiteSpace=wrap;html=1;fillColor=#d5e8d4;strokeColor=#82b366;opacity=80;" vertex="1" parent="Ur9ymTX70aR9tCa4kkiK-62">
          <mxGeometry x="51" y="15" width="30" height="30" as="geometry" />
        </mxCell>
        <mxCell id="Ur9ymTX70aR9tCa4kkiK-66" value="UDP Port 1" style="fillColor=#82B366;aspect=fixed;sketch=0;pointerEvents=1;shadow=0;dashed=0;html=1;strokeColor=none;labelPosition=left;verticalLabelPosition=middle;outlineConnect=0;verticalAlign=middle;align=right;shape=mxgraph.openstack.neutron_port;rotation=-90;textDirection=vertical-lr;fontSize=6;spacing=10;fontColor=#82B366;direction=south;spacingTop=0;" vertex="1" parent="Ur9ymTX70aR9tCa4kkiK-62">
          <mxGeometry x="19" y="49" width="10" height="10" as="geometry" />
        </mxCell>
        <mxCell id="Ur9ymTX70aR9tCa4kkiK-67" value="" style="shape=flexArrow;endArrow=classic;html=1;rounded=0;fillColor=#d5e8d4;gradientColor=#97d077;strokeColor=#82b366;endWidth=4.077293815593892;endSize=2.4201342281879197;width=3.6241610738255035;" edge="1" parent="Ur9ymTX70aR9tCa4kkiK-62">
          <mxGeometry width="50" height="50" relative="1" as="geometry">
            <mxPoint x="30" y="62.93000000000001" as="sourcePoint" />
            <mxPoint x="10" y="62.93000000000001" as="targetPoint" />
          </mxGeometry>
        </mxCell>
        <mxCell id="Ur9ymTX70aR9tCa4kkiK-68" value="256 pixels" style="text;strokeColor=none;align=center;fillColor=none;html=1;verticalAlign=middle;whiteSpace=wrap;rounded=0;fontFamily=Helvetica;fontSize=4;fontColor=#999999;labelBackgroundColor=none;resizable=0;" vertex="1" parent="Ur9ymTX70aR9tCa4kkiK-62">
          <mxGeometry x="5" y="3" width="60" height="30" as="geometry" />
        </mxCell>
        <mxCell id="Ur9ymTX70aR9tCa4kkiK-69" value="&lt;font style=&quot;color: rgb(153, 153, 153);&quot;&gt;3&lt;/font&gt;" style="rounded=1;whiteSpace=wrap;html=1;fillColor=#dae8fc;strokeColor=#6c8ebf;opacity=80;gradientColor=none;" vertex="1" parent="Ur9ymTX70aR9tCa4kkiK-62">
          <mxGeometry x="83" y="15" width="30" height="30" as="geometry" />
        </mxCell>
        <mxCell id="Ur9ymTX70aR9tCa4kkiK-70" value="&lt;font style=&quot;color: rgb(153, 153, 153);&quot;&gt;4&lt;/font&gt;" style="rounded=1;whiteSpace=wrap;html=1;fillColor=#dae8fc;strokeColor=#6c8ebf;opacity=80;gradientColor=none;" vertex="1" parent="Ur9ymTX70aR9tCa4kkiK-62">
          <mxGeometry x="115" y="15" width="30" height="30" as="geometry" />
        </mxCell>
        <mxCell id="Ur9ymTX70aR9tCa4kkiK-71" value="UDP Port 2" style="fillColor=#3399FF;aspect=fixed;sketch=0;pointerEvents=1;shadow=0;dashed=0;html=1;strokeColor=none;labelPosition=left;verticalLabelPosition=middle;outlineConnect=0;verticalAlign=middle;align=right;shape=mxgraph.openstack.neutron_port;rotation=-90;textDirection=vertical-lr;fontSize=6;spacing=10;fontColor=#3399FF;direction=south;spacingTop=0;" vertex="1" parent="Ur9ymTX70aR9tCa4kkiK-62">
          <mxGeometry x="83" y="49" width="10" height="10" as="geometry" />
        </mxCell>
        <mxCell id="Ur9ymTX70aR9tCa4kkiK-72" value="" style="shape=flexArrow;endArrow=classic;html=1;rounded=0;fillColor=#dae8fc;gradientColor=none;strokeColor=#6c8ebf;endWidth=4.077293815593892;endSize=2.4201342281879197;width=3.6241610738255035;fontColor=#3399FF;" edge="1" parent="Ur9ymTX70aR9tCa4kkiK-62">
          <mxGeometry width="50" height="50" relative="1" as="geometry">
            <mxPoint x="93" y="62.93000000000001" as="sourcePoint" />
            <mxPoint x="73" y="62.93000000000001" as="targetPoint" />
          </mxGeometry>
        </mxCell>
        <mxCell id="Ur9ymTX70aR9tCa4kkiK-73" value="Control Port" style="fillColor=#9999FF;aspect=fixed;sketch=0;pointerEvents=1;shadow=0;dashed=0;html=1;strokeColor=none;labelPosition=right;verticalLabelPosition=middle;outlineConnect=0;verticalAlign=middle;align=left;shape=mxgraph.openstack.neutron_port;rotation=-90;fontSize=6;fontColor=#9999FF;spacing=11;textDirection=vertical-lr;spacingTop=7;direction=north;" vertex="1" parent="Ur9ymTX70aR9tCa4kkiK-62">
          <mxGeometry x="23" y="1" width="10" height="10" as="geometry" />
        </mxCell>
        <mxCell id="Ur9ymTX70aR9tCa4kkiK-74" value="" style="shape=flexArrow;endArrow=classic;startArrow=classic;html=1;rounded=0;fontFamily=Helvetica;fontSize=11;fontColor=default;labelBackgroundColor=default;resizable=0;width=4.1610738255033555;startSize=2.2738255033557047;endSize=1.8885906040268456;startWidth=4.17548759064907;endWidth=4.17548759064907;fillColor=#CCCCFF;gradientColor=none;strokeColor=#9999FF;" edge="1" parent="Ur9ymTX70aR9tCa4kkiK-62">
          <mxGeometry width="100" height="100" relative="1" as="geometry">
            <mxPoint x="16" y="-5.1699999999999875" as="sourcePoint" />
            <mxPoint x="38" y="-5.099999999999994" as="targetPoint" />
          </mxGeometry>
        </mxCell>
        <mxCell id="Ur9ymTX70aR9tCa4kkiK-75" value="256 pixels" style="text;strokeColor=none;align=center;fillColor=none;html=1;verticalAlign=middle;whiteSpace=wrap;rounded=0;fontFamily=Helvetica;fontSize=4;fontColor=#999999;labelBackgroundColor=none;resizable=0;rotation=-90;" vertex="1" parent="Ur9ymTX70aR9tCa4kkiK-62">
          <mxGeometry x="-8" y="15" width="60" height="30" as="geometry" />
        </mxCell>
        <mxCell id="Ur9ymTX70aR9tCa4kkiK-77" value="&lt;font style=&quot;color: rgb(126, 166, 224);&quot;&gt;Bottom Half Module&lt;/font&gt;" style="rounded=1;whiteSpace=wrap;html=1;labelPosition=center;verticalLabelPosition=bottom;align=center;verticalAlign=top;fontSize=9;fillColor=#dae8fc;gradientColor=#7ea6e0;strokeColor=#6c8ebf;spacing=0;" vertex="1" parent="Ur9ymTX70aR9tCa4kkiK-61">
          <mxGeometry x="20" y="86.93" width="137" height="38" as="geometry" />
        </mxCell>
        <mxCell id="Ur9ymTX70aR9tCa4kkiK-78" value="" style="rounded=1;whiteSpace=wrap;html=1;fillColor=#d5e8d4;strokeColor=#82b366;opacity=80;direction=west;" vertex="1" parent="Ur9ymTX70aR9tCa4kkiK-61">
          <mxGeometry x="89" y="90.93" width="30" height="30" as="geometry" />
        </mxCell>
        <mxCell id="Ur9ymTX70aR9tCa4kkiK-79" value="" style="rounded=1;whiteSpace=wrap;html=1;fillColor=#d5e8d4;strokeColor=#82b366;opacity=80;direction=west;" vertex="1" parent="Ur9ymTX70aR9tCa4kkiK-61">
          <mxGeometry x="122" y="90.93" width="30" height="30" as="geometry" />
        </mxCell>
        <mxCell id="Ur9ymTX70aR9tCa4kkiK-80" value="UDP Port 1" style="fillColor=#82B366;aspect=fixed;sketch=0;pointerEvents=1;shadow=0;dashed=0;html=1;strokeColor=none;labelPosition=right;verticalLabelPosition=middle;outlineConnect=0;verticalAlign=middle;align=left;shape=mxgraph.openstack.neutron_port;rotation=-90;textDirection=vertical-lr;fontSize=6;spacing=8;fontColor=#82B366;direction=north;" vertex="1" parent="Ur9ymTX70aR9tCa4kkiK-61">
          <mxGeometry x="143" y="76.93" width="10" height="10" as="geometry" />
        </mxCell>
        <mxCell id="Ur9ymTX70aR9tCa4kkiK-81" value="" style="shape=flexArrow;endArrow=classic;html=1;rounded=0;fillColor=#d5e8d4;gradientColor=#97d077;strokeColor=#82b366;endWidth=4.077293815593892;endSize=2.4201342281879197;width=3.6241610738255035;" edge="1" parent="Ur9ymTX70aR9tCa4kkiK-61">
          <mxGeometry width="50" height="50" relative="1" as="geometry">
            <mxPoint x="142" y="73" as="sourcePoint" />
            <mxPoint x="162" y="73" as="targetPoint" />
          </mxGeometry>
        </mxCell>
        <mxCell id="Ur9ymTX70aR9tCa4kkiK-82" value="256 pixels" style="text;strokeColor=none;align=center;fillColor=none;html=1;verticalAlign=middle;whiteSpace=wrap;rounded=0;fontFamily=Helvetica;fontSize=4;fontColor=#999999;labelBackgroundColor=none;resizable=0;" vertex="1" parent="Ur9ymTX70aR9tCa4kkiK-61">
          <mxGeometry x="108" y="102.93" width="60" height="30" as="geometry" />
        </mxCell>
        <mxCell id="Ur9ymTX70aR9tCa4kkiK-83" value="" style="rounded=1;whiteSpace=wrap;html=1;fillColor=#dae8fc;strokeColor=#6c8ebf;opacity=80;gradientColor=none;" vertex="1" parent="Ur9ymTX70aR9tCa4kkiK-61">
          <mxGeometry x="24" y="91" width="30" height="30" as="geometry" />
        </mxCell>
        <mxCell id="Ur9ymTX70aR9tCa4kkiK-84" value="" style="rounded=1;whiteSpace=wrap;html=1;fillColor=#dae8fc;strokeColor=#6c8ebf;opacity=80;gradientColor=none;textDirection=ltr;direction=west;" vertex="1" parent="Ur9ymTX70aR9tCa4kkiK-61">
          <mxGeometry x="56" y="91" width="30" height="30" as="geometry" />
        </mxCell>
        <mxCell id="Ur9ymTX70aR9tCa4kkiK-85" value="UDP Port 2" style="fillColor=#3399FF;aspect=fixed;sketch=0;pointerEvents=1;shadow=0;dashed=0;html=1;strokeColor=none;labelPosition=right;verticalLabelPosition=middle;outlineConnect=0;verticalAlign=middle;align=left;shape=mxgraph.openstack.neutron_port;rotation=-90;textDirection=vertical-lr;fontSize=6;spacing=8;fontColor=#3399FF;direction=north;spacingTop=0;" vertex="1" parent="Ur9ymTX70aR9tCa4kkiK-61">
          <mxGeometry x="75" y="76.93" width="10" height="10" as="geometry" />
        </mxCell>
        <mxCell id="Ur9ymTX70aR9tCa4kkiK-86" value="" style="shape=flexArrow;endArrow=classic;html=1;rounded=0;fillColor=#dae8fc;gradientColor=none;strokeColor=#6c8ebf;endWidth=4.077293815593892;endSize=2.4201342281879197;width=3.6241610738255035;fontColor=#3399FF;" edge="1" parent="Ur9ymTX70aR9tCa4kkiK-61">
          <mxGeometry width="50" height="50" relative="1" as="geometry">
            <mxPoint x="74" y="73" as="sourcePoint" />
            <mxPoint x="94" y="73" as="targetPoint" />
          </mxGeometry>
        </mxCell>
        <mxCell id="Ur9ymTX70aR9tCa4kkiK-87" value="&lt;font style=&quot;color: rgb(153, 153, 153);&quot;&gt;1&lt;/font&gt;" style="text;strokeColor=none;align=center;fillColor=none;html=1;verticalAlign=middle;whiteSpace=wrap;rounded=0;fontFamily=Helvetica;fontSize=11;fontColor=default;labelBackgroundColor=none;resizable=0;rotation=-180;" vertex="1" parent="Ur9ymTX70aR9tCa4kkiK-61">
          <mxGeometry x="108" y="90.93" width="60" height="30" as="geometry" />
        </mxCell>
        <mxCell id="Ur9ymTX70aR9tCa4kkiK-88" value="&lt;font style=&quot;color: rgb(153, 153, 153);&quot;&gt;3&lt;/font&gt;" style="text;strokeColor=none;align=center;fillColor=none;html=1;verticalAlign=middle;whiteSpace=wrap;rounded=0;fontFamily=Helvetica;fontSize=11;fontColor=default;labelBackgroundColor=none;resizable=0;rotation=-180;" vertex="1" parent="Ur9ymTX70aR9tCa4kkiK-61">
          <mxGeometry x="41" y="90.93" width="60" height="30" as="geometry" />
        </mxCell>
        <mxCell id="Ur9ymTX70aR9tCa4kkiK-89" value="&lt;font style=&quot;color: rgb(153, 153, 153);&quot;&gt;2&lt;/font&gt;" style="text;strokeColor=none;align=center;fillColor=none;html=1;verticalAlign=middle;whiteSpace=wrap;rounded=0;fontFamily=Helvetica;fontSize=11;fontColor=default;labelBackgroundColor=none;resizable=0;rotation=-180;" vertex="1" parent="Ur9ymTX70aR9tCa4kkiK-61">
          <mxGeometry x="74" y="91" width="60" height="30" as="geometry" />
        </mxCell>
        <mxCell id="Ur9ymTX70aR9tCa4kkiK-90" value="&lt;font style=&quot;color: rgb(153, 153, 153);&quot;&gt;4&lt;/font&gt;" style="text;strokeColor=none;align=center;fillColor=none;html=1;verticalAlign=middle;whiteSpace=wrap;rounded=0;fontFamily=Helvetica;fontSize=11;fontColor=default;labelBackgroundColor=none;resizable=0;rotation=-180;flipH=1;" vertex="1" parent="Ur9ymTX70aR9tCa4kkiK-61">
          <mxGeometry x="9" y="91" width="60" height="30" as="geometry" />
        </mxCell>
        <mxCell id="Ur9ymTX70aR9tCa4kkiK-91" value="256 pixels" style="text;strokeColor=none;align=center;fillColor=none;html=1;verticalAlign=middle;whiteSpace=wrap;rounded=0;fontFamily=Helvetica;fontSize=4;fontColor=#999999;labelBackgroundColor=none;resizable=0;rotation=-90;" vertex="1" parent="Ur9ymTX70aR9tCa4kkiK-61">
          <mxGeometry x="118" y="90.93" width="60" height="30" as="geometry" />
        </mxCell>
        <mxCell id="Ur9ymTX70aR9tCa4kkiK-92" value="" style="endArrow=none;dashed=1;html=1;rounded=0;fontFamily=Helvetica;fontSize=11;fontColor=default;labelBackgroundColor=none;resizable=0;strokeColor=#B9E0A5;exitX=0;exitY=0.5;exitDx=0;exitDy=0;entryX=1;entryY=0.5;entryDx=0;entryDy=0;" edge="1" parent="Ur9ymTX70aR9tCa4kkiK-61" source="Ur9ymTX70aR9tCa4kkiK-15" target="Ur9ymTX70aR9tCa4kkiK-15">
          <mxGeometry width="50" height="50" relative="1" as="geometry">
            <mxPoint x="-25" y="54" as="sourcePoint" />
            <mxPoint x="183" y="53" as="targetPoint" />
          </mxGeometry>
        </mxCell>
        <mxCell id="Ur9ymTX70aR9tCa4kkiK-93" value="Control Port" style="fillColor=#9999FF;aspect=fixed;sketch=0;pointerEvents=1;shadow=0;dashed=0;html=1;strokeColor=none;labelPosition=left;verticalLabelPosition=middle;outlineConnect=0;verticalAlign=middle;align=right;shape=mxgraph.openstack.neutron_port;rotation=-90;fontSize=6;fontColor=#9999FF;spacing=13;textDirection=vertical-lr;spacingTop=0;direction=south;" vertex="1" parent="Ur9ymTX70aR9tCa4kkiK-61">
          <mxGeometry x="136" y="125" width="10" height="10" as="geometry" />
        </mxCell>
        <mxCell id="Ur9ymTX70aR9tCa4kkiK-94" value="" style="shape=flexArrow;endArrow=classic;startArrow=classic;html=1;rounded=0;fontFamily=Helvetica;fontSize=11;fontColor=default;labelBackgroundColor=default;resizable=0;width=4.1610738255033555;startSize=2.2738255033557047;endSize=1.8885906040268456;startWidth=4.17548759064907;endWidth=4.17548759064907;fillColor=#CCCCFF;gradientColor=none;strokeColor=#9999FF;" edge="1" parent="Ur9ymTX70aR9tCa4kkiK-61">
          <mxGeometry width="100" height="100" relative="1" as="geometry">
            <mxPoint x="129" y="140.83000000000004" as="sourcePoint" />
            <mxPoint x="151" y="140.89999999999998" as="targetPoint" />
          </mxGeometry>
        </mxCell>
        <mxCell id="Ur9ymTX70aR9tCa4kkiK-95" value="Single Module" style="text;strokeColor=none;align=center;fillColor=none;html=1;verticalAlign=middle;whiteSpace=wrap;rounded=0;fontFamily=Helvetica;fontSize=9;fontColor=#9999FF;labelBackgroundColor=default;resizable=1;movable=1;rotatable=1;deletable=1;editable=1;locked=0;connectable=1;" vertex="1" parent="Ur9ymTX70aR9tCa4kkiK-61">
          <mxGeometry x="39.5" y="-66" width="93" height="30" as="geometry" />
        </mxCell>
        <mxCell id="Ur9ymTX70aR9tCa4kkiK-235" value="" style="rounded=1;whiteSpace=wrap;html=1;align=center;verticalAlign=middle;fontFamily=Helvetica;fontSize=11;labelBackgroundColor=default;resizable=1;fillColor=none;gradientColor=#ffa500;strokeColor=#B9E0A5;movable=1;rotatable=1;deletable=1;editable=1;locked=0;connectable=1;" vertex="1" parent="Ur9ymTX70aR9tCa4kkiK-61">
          <mxGeometry x="13" y="173" width="159" height="171" as="geometry" />
        </mxCell>
        <mxCell id="Ur9ymTX70aR9tCa4kkiK-237" value="" style="group" connectable="0" vertex="1" parent="Ur9ymTX70aR9tCa4kkiK-61">
          <mxGeometry x="9" y="175" width="146" height="86" as="geometry" />
        </mxCell>
        <mxCell id="Ur9ymTX70aR9tCa4kkiK-238" value="" style="rounded=1;whiteSpace=wrap;html=1;labelPosition=center;verticalLabelPosition=top;align=center;verticalAlign=bottom;fontSize=9;fillColor=#dae8fc;gradientColor=#7ea6e0;strokeColor=#6c8ebf;spacing=0;" vertex="1" parent="Ur9ymTX70aR9tCa4kkiK-237">
          <mxGeometry x="14" y="11" width="137" height="38" as="geometry" />
        </mxCell>
        <mxCell id="Ur9ymTX70aR9tCa4kkiK-239" value="&lt;font style=&quot;color: rgb(153, 153, 153);&quot;&gt;1&lt;/font&gt;" style="rounded=1;whiteSpace=wrap;html=1;fillColor=#d5e8d4;strokeColor=#82b366;opacity=80;spacingTop=-3;" vertex="1" parent="Ur9ymTX70aR9tCa4kkiK-237">
          <mxGeometry x="19" y="15" width="30" height="30" as="geometry" />
        </mxCell>
        <mxCell id="Ur9ymTX70aR9tCa4kkiK-240" value="&lt;font style=&quot;color: rgb(153, 153, 153);&quot;&gt;2&lt;/font&gt;" style="rounded=1;whiteSpace=wrap;html=1;fillColor=#d5e8d4;strokeColor=#82b366;opacity=80;spacingTop=-3;" vertex="1" parent="Ur9ymTX70aR9tCa4kkiK-237">
          <mxGeometry x="51" y="15" width="30" height="30" as="geometry" />
        </mxCell>
        <mxCell id="Ur9ymTX70aR9tCa4kkiK-241" value="UDP Port 1" style="fillColor=#82B366;aspect=fixed;sketch=0;pointerEvents=1;shadow=0;dashed=0;html=1;strokeColor=none;labelPosition=left;verticalLabelPosition=middle;outlineConnect=0;verticalAlign=middle;align=right;shape=mxgraph.openstack.neutron_port;rotation=-90;textDirection=vertical-lr;fontSize=6;spacing=10;fontColor=#82B366;direction=south;spacingTop=0;" vertex="1" parent="Ur9ymTX70aR9tCa4kkiK-237">
          <mxGeometry x="19" y="49" width="10" height="10" as="geometry" />
        </mxCell>
        <mxCell id="Ur9ymTX70aR9tCa4kkiK-242" value="" style="shape=flexArrow;endArrow=classic;html=1;rounded=0;fillColor=#d5e8d4;gradientColor=#97d077;strokeColor=#82b366;endWidth=4.077293815593892;endSize=2.4201342281879197;width=3.6241610738255035;" edge="1" parent="Ur9ymTX70aR9tCa4kkiK-237">
          <mxGeometry width="50" height="50" relative="1" as="geometry">
            <mxPoint x="30" y="62.93000000000001" as="sourcePoint" />
            <mxPoint x="10" y="62.93000000000001" as="targetPoint" />
          </mxGeometry>
        </mxCell>
        <mxCell id="Ur9ymTX70aR9tCa4kkiK-243" value="&lt;font style=&quot;color: rgb(153, 153, 153);&quot;&gt;3&lt;/font&gt;" style="rounded=1;whiteSpace=wrap;html=1;fillColor=#dae8fc;strokeColor=#6c8ebf;opacity=80;gradientColor=none;spacingTop=-3;" vertex="1" parent="Ur9ymTX70aR9tCa4kkiK-237">
          <mxGeometry x="83" y="15" width="30" height="30" as="geometry" />
        </mxCell>
        <mxCell id="Ur9ymTX70aR9tCa4kkiK-244" value="&lt;font style=&quot;color: rgb(153, 153, 153);&quot;&gt;4&lt;/font&gt;" style="rounded=1;whiteSpace=wrap;html=1;fillColor=#dae8fc;strokeColor=#6c8ebf;opacity=80;gradientColor=none;spacingTop=-3;" vertex="1" parent="Ur9ymTX70aR9tCa4kkiK-237">
          <mxGeometry x="115" y="15" width="30" height="30" as="geometry" />
        </mxCell>
        <mxCell id="Ur9ymTX70aR9tCa4kkiK-245" value="UDP Port 2" style="fillColor=#3399FF;aspect=fixed;sketch=0;pointerEvents=1;shadow=0;dashed=0;html=1;strokeColor=none;labelPosition=left;verticalLabelPosition=middle;outlineConnect=0;verticalAlign=middle;align=right;shape=mxgraph.openstack.neutron_port;rotation=-90;textDirection=vertical-lr;fontSize=6;spacing=10;fontColor=#3399FF;direction=south;spacingTop=0;" vertex="1" parent="Ur9ymTX70aR9tCa4kkiK-237">
          <mxGeometry x="83" y="49" width="10" height="10" as="geometry" />
        </mxCell>
        <mxCell id="Ur9ymTX70aR9tCa4kkiK-246" value="" style="shape=flexArrow;endArrow=classic;html=1;rounded=0;fillColor=#dae8fc;gradientColor=none;strokeColor=#6c8ebf;endWidth=4.077293815593892;endSize=2.4201342281879197;width=3.6241610738255035;fontColor=#3399FF;" edge="1" parent="Ur9ymTX70aR9tCa4kkiK-237">
          <mxGeometry width="50" height="50" relative="1" as="geometry">
            <mxPoint x="93" y="62.93000000000001" as="sourcePoint" />
            <mxPoint x="73" y="62.93000000000001" as="targetPoint" />
          </mxGeometry>
        </mxCell>
        <mxCell id="Ur9ymTX70aR9tCa4kkiK-248" value="" style="rounded=1;whiteSpace=wrap;html=1;labelPosition=center;verticalLabelPosition=bottom;align=center;verticalAlign=top;fontSize=9;fillColor=#dae8fc;gradientColor=#7ea6e0;strokeColor=#6c8ebf;spacing=0;" vertex="1" parent="Ur9ymTX70aR9tCa4kkiK-61">
          <mxGeometry x="23" y="286.93" width="137" height="38" as="geometry" />
        </mxCell>
        <mxCell id="Ur9ymTX70aR9tCa4kkiK-249" value="" style="rounded=1;whiteSpace=wrap;html=1;fillColor=#d5e8d4;strokeColor=#82b366;opacity=80;direction=west;" vertex="1" parent="Ur9ymTX70aR9tCa4kkiK-61">
          <mxGeometry x="92" y="290.93" width="30" height="30" as="geometry" />
        </mxCell>
        <mxCell id="Ur9ymTX70aR9tCa4kkiK-250" value="" style="rounded=1;whiteSpace=wrap;html=1;fillColor=#d5e8d4;strokeColor=#82b366;opacity=80;direction=west;" vertex="1" parent="Ur9ymTX70aR9tCa4kkiK-61">
          <mxGeometry x="125" y="290.93" width="30" height="30" as="geometry" />
        </mxCell>
        <mxCell id="Ur9ymTX70aR9tCa4kkiK-251" value="UDP Port 1" style="fillColor=#82B366;aspect=fixed;sketch=0;pointerEvents=1;shadow=0;dashed=0;html=1;strokeColor=none;labelPosition=right;verticalLabelPosition=middle;outlineConnect=0;verticalAlign=middle;align=left;shape=mxgraph.openstack.neutron_port;rotation=-90;textDirection=vertical-lr;fontSize=6;spacing=8;fontColor=#82B366;direction=north;" vertex="1" parent="Ur9ymTX70aR9tCa4kkiK-61">
          <mxGeometry x="146" y="276.93" width="10" height="10" as="geometry" />
        </mxCell>
        <mxCell id="Ur9ymTX70aR9tCa4kkiK-252" value="" style="shape=flexArrow;endArrow=classic;html=1;rounded=0;fillColor=#d5e8d4;gradientColor=#97d077;strokeColor=#82b366;endWidth=4.077293815593892;endSize=2.4201342281879197;width=3.6241610738255035;" edge="1" parent="Ur9ymTX70aR9tCa4kkiK-61">
          <mxGeometry width="50" height="50" relative="1" as="geometry">
            <mxPoint x="145" y="273" as="sourcePoint" />
            <mxPoint x="165" y="273" as="targetPoint" />
          </mxGeometry>
        </mxCell>
        <mxCell id="Ur9ymTX70aR9tCa4kkiK-253" value="" style="rounded=1;whiteSpace=wrap;html=1;fillColor=#dae8fc;strokeColor=#6c8ebf;opacity=80;gradientColor=none;" vertex="1" parent="Ur9ymTX70aR9tCa4kkiK-61">
          <mxGeometry x="27" y="291" width="30" height="30" as="geometry" />
        </mxCell>
        <mxCell id="Ur9ymTX70aR9tCa4kkiK-254" value="" style="rounded=1;whiteSpace=wrap;html=1;fillColor=#dae8fc;strokeColor=#6c8ebf;opacity=80;gradientColor=none;textDirection=ltr;direction=west;" vertex="1" parent="Ur9ymTX70aR9tCa4kkiK-61">
          <mxGeometry x="59" y="291" width="30" height="30" as="geometry" />
        </mxCell>
        <mxCell id="Ur9ymTX70aR9tCa4kkiK-255" value="UDP Port 2" style="fillColor=#3399FF;aspect=fixed;sketch=0;pointerEvents=1;shadow=0;dashed=0;html=1;strokeColor=none;labelPosition=right;verticalLabelPosition=middle;outlineConnect=0;verticalAlign=middle;align=left;shape=mxgraph.openstack.neutron_port;rotation=-90;textDirection=vertical-lr;fontSize=6;spacing=8;fontColor=#3399FF;direction=north;spacingTop=0;" vertex="1" parent="Ur9ymTX70aR9tCa4kkiK-61">
          <mxGeometry x="78" y="276.93" width="10" height="10" as="geometry" />
        </mxCell>
        <mxCell id="Ur9ymTX70aR9tCa4kkiK-256" value="" style="shape=flexArrow;endArrow=classic;html=1;rounded=0;fillColor=#dae8fc;gradientColor=none;strokeColor=#6c8ebf;endWidth=4.077293815593892;endSize=2.4201342281879197;width=3.6241610738255035;fontColor=#3399FF;" edge="1" parent="Ur9ymTX70aR9tCa4kkiK-61">
          <mxGeometry width="50" height="50" relative="1" as="geometry">
            <mxPoint x="77" y="273" as="sourcePoint" />
            <mxPoint x="97" y="273" as="targetPoint" />
          </mxGeometry>
        </mxCell>
        <mxCell id="Ur9ymTX70aR9tCa4kkiK-257" value="&lt;font style=&quot;color: rgb(153, 153, 153);&quot;&gt;3&lt;/font&gt;" style="text;strokeColor=none;align=center;fillColor=none;html=1;verticalAlign=middle;whiteSpace=wrap;rounded=0;fontFamily=Helvetica;fontSize=11;fontColor=default;labelBackgroundColor=none;resizable=0;rotation=-180;spacingTop=-3;" vertex="1" parent="Ur9ymTX70aR9tCa4kkiK-61">
          <mxGeometry x="44" y="290.93" width="60" height="30" as="geometry" />
        </mxCell>
        <mxCell id="Ur9ymTX70aR9tCa4kkiK-258" value="&lt;font style=&quot;color: rgb(153, 153, 153);&quot;&gt;2&lt;/font&gt;" style="text;strokeColor=none;align=center;fillColor=none;html=1;verticalAlign=middle;whiteSpace=wrap;rounded=0;fontFamily=Helvetica;fontSize=11;fontColor=default;labelBackgroundColor=none;resizable=0;rotation=-180;spacingTop=-3;" vertex="1" parent="Ur9ymTX70aR9tCa4kkiK-61">
          <mxGeometry x="77" y="291" width="60" height="30" as="geometry" />
        </mxCell>
        <mxCell id="Ur9ymTX70aR9tCa4kkiK-259" value="&lt;font style=&quot;color: rgb(153, 153, 153);&quot;&gt;4&lt;/font&gt;" style="text;strokeColor=none;align=center;fillColor=none;html=1;verticalAlign=middle;whiteSpace=wrap;rounded=0;fontFamily=Helvetica;fontSize=11;fontColor=default;labelBackgroundColor=none;resizable=0;rotation=-180;spacingTop=-3;" vertex="1" parent="Ur9ymTX70aR9tCa4kkiK-61">
          <mxGeometry x="12" y="291" width="60" height="30" as="geometry" />
        </mxCell>
        <mxCell id="Ur9ymTX70aR9tCa4kkiK-260" value="&lt;font style=&quot;color: rgb(153, 153, 153);&quot;&gt;1&lt;/font&gt;" style="text;strokeColor=none;align=center;fillColor=none;html=1;verticalAlign=middle;whiteSpace=wrap;rounded=0;fontFamily=Helvetica;fontSize=11;fontColor=default;labelBackgroundColor=none;resizable=0;rotation=-180;spacingTop=-3;" vertex="1" parent="Ur9ymTX70aR9tCa4kkiK-61">
          <mxGeometry x="110" y="290.92999999999995" width="60" height="30" as="geometry" />
        </mxCell>
        <mxCell id="Ur9ymTX70aR9tCa4kkiK-261" value="" style="endArrow=none;dashed=1;html=1;rounded=0;fontFamily=Helvetica;fontSize=11;fontColor=default;labelBackgroundColor=none;resizable=0;strokeColor=#B9E0A5;exitX=0;exitY=0.5;exitDx=0;exitDy=0;entryX=1;entryY=0.5;entryDx=0;entryDy=0;" edge="1" parent="Ur9ymTX70aR9tCa4kkiK-61" source="Ur9ymTX70aR9tCa4kkiK-235" target="Ur9ymTX70aR9tCa4kkiK-235">
          <mxGeometry width="50" height="50" relative="1" as="geometry">
            <mxPoint x="-22" y="254" as="sourcePoint" />
            <mxPoint x="186" y="253" as="targetPoint" />
          </mxGeometry>
        </mxCell>
        <mxCell id="Ur9ymTX70aR9tCa4kkiK-262" value="" style="endArrow=none;html=1;rounded=0;fontFamily=Helvetica;fontSize=11;fontColor=default;labelBackgroundColor=default;resizable=0;strokeColor=#3333FF;" edge="1" parent="Ur9ymTX70aR9tCa4kkiK-61">
          <mxGeometry width="50" height="50" relative="1" as="geometry">
            <mxPoint x="32" y="218" as="sourcePoint" />
            <mxPoint x="54" y="218" as="targetPoint" />
          </mxGeometry>
        </mxCell>
        <mxCell id="Ur9ymTX70aR9tCa4kkiK-263" value="" style="endArrow=none;html=1;rounded=0;fontFamily=Helvetica;fontSize=11;fontColor=default;labelBackgroundColor=default;resizable=0;strokeColor=#3333FF;" edge="1" parent="Ur9ymTX70aR9tCa4kkiK-61">
          <mxGeometry width="50" height="50" relative="1" as="geometry">
            <mxPoint x="32" y="215" as="sourcePoint" />
            <mxPoint x="54" y="215" as="targetPoint" />
          </mxGeometry>
        </mxCell>
        <mxCell id="Ur9ymTX70aR9tCa4kkiK-264" value="" style="endArrow=none;html=1;rounded=0;fontFamily=Helvetica;fontSize=11;fontColor=default;labelBackgroundColor=default;resizable=0;strokeColor=#3333FF;" edge="1" parent="Ur9ymTX70aR9tCa4kkiK-61">
          <mxGeometry width="50" height="50" relative="1" as="geometry">
            <mxPoint x="64" y="218" as="sourcePoint" />
            <mxPoint x="86" y="218" as="targetPoint" />
          </mxGeometry>
        </mxCell>
        <mxCell id="Ur9ymTX70aR9tCa4kkiK-265" value="" style="endArrow=none;html=1;rounded=0;fontFamily=Helvetica;fontSize=11;fontColor=default;labelBackgroundColor=default;resizable=0;strokeColor=#3333FF;" edge="1" parent="Ur9ymTX70aR9tCa4kkiK-61">
          <mxGeometry width="50" height="50" relative="1" as="geometry">
            <mxPoint x="64" y="215" as="sourcePoint" />
            <mxPoint x="86" y="215" as="targetPoint" />
          </mxGeometry>
        </mxCell>
        <mxCell id="Ur9ymTX70aR9tCa4kkiK-266" value="" style="endArrow=none;html=1;rounded=0;fontFamily=Helvetica;fontSize=11;fontColor=default;labelBackgroundColor=default;resizable=0;strokeColor=#3333FF;" edge="1" parent="Ur9ymTX70aR9tCa4kkiK-61">
          <mxGeometry width="50" height="50" relative="1" as="geometry">
            <mxPoint x="96" y="218" as="sourcePoint" />
            <mxPoint x="118" y="218" as="targetPoint" />
          </mxGeometry>
        </mxCell>
        <mxCell id="Ur9ymTX70aR9tCa4kkiK-267" value="" style="endArrow=none;html=1;rounded=0;fontFamily=Helvetica;fontSize=11;fontColor=default;labelBackgroundColor=default;resizable=0;strokeColor=#3333FF;" edge="1" parent="Ur9ymTX70aR9tCa4kkiK-61">
          <mxGeometry width="50" height="50" relative="1" as="geometry">
            <mxPoint x="96" y="215" as="sourcePoint" />
            <mxPoint x="118" y="215" as="targetPoint" />
          </mxGeometry>
        </mxCell>
        <mxCell id="Ur9ymTX70aR9tCa4kkiK-268" value="" style="endArrow=none;html=1;rounded=0;fontFamily=Helvetica;fontSize=11;fontColor=default;labelBackgroundColor=default;resizable=0;strokeColor=#3333FF;" edge="1" parent="Ur9ymTX70aR9tCa4kkiK-61">
          <mxGeometry width="50" height="50" relative="1" as="geometry">
            <mxPoint x="128" y="218" as="sourcePoint" />
            <mxPoint x="150" y="218" as="targetPoint" />
          </mxGeometry>
        </mxCell>
        <mxCell id="Ur9ymTX70aR9tCa4kkiK-269" value="" style="endArrow=none;html=1;rounded=0;fontFamily=Helvetica;fontSize=11;fontColor=default;labelBackgroundColor=default;resizable=0;strokeColor=#3333FF;" edge="1" parent="Ur9ymTX70aR9tCa4kkiK-61">
          <mxGeometry width="50" height="50" relative="1" as="geometry">
            <mxPoint x="128" y="215" as="sourcePoint" />
            <mxPoint x="150" y="215" as="targetPoint" />
          </mxGeometry>
        </mxCell>
        <mxCell id="Ur9ymTX70aR9tCa4kkiK-270" value="" style="endArrow=none;html=1;rounded=0;fontFamily=Helvetica;fontSize=11;fontColor=default;labelBackgroundColor=default;resizable=0;strokeColor=#3333FF;" edge="1" parent="Ur9ymTX70aR9tCa4kkiK-61">
          <mxGeometry width="50" height="50" relative="1" as="geometry">
            <mxPoint x="31" y="296" as="sourcePoint" />
            <mxPoint x="53" y="296" as="targetPoint" />
          </mxGeometry>
        </mxCell>
        <mxCell id="Ur9ymTX70aR9tCa4kkiK-271" value="" style="endArrow=none;html=1;rounded=0;fontFamily=Helvetica;fontSize=11;fontColor=default;labelBackgroundColor=default;resizable=0;strokeColor=#3333FF;" edge="1" parent="Ur9ymTX70aR9tCa4kkiK-61">
          <mxGeometry width="50" height="50" relative="1" as="geometry">
            <mxPoint x="31" y="293" as="sourcePoint" />
            <mxPoint x="53" y="293" as="targetPoint" />
          </mxGeometry>
        </mxCell>
        <mxCell id="Ur9ymTX70aR9tCa4kkiK-272" value="" style="endArrow=none;html=1;rounded=0;fontFamily=Helvetica;fontSize=11;fontColor=default;labelBackgroundColor=default;resizable=0;strokeColor=#3333FF;" edge="1" parent="Ur9ymTX70aR9tCa4kkiK-61">
          <mxGeometry width="50" height="50" relative="1" as="geometry">
            <mxPoint x="63" y="296" as="sourcePoint" />
            <mxPoint x="85" y="296" as="targetPoint" />
          </mxGeometry>
        </mxCell>
        <mxCell id="Ur9ymTX70aR9tCa4kkiK-273" value="" style="endArrow=none;html=1;rounded=0;fontFamily=Helvetica;fontSize=11;fontColor=default;labelBackgroundColor=default;resizable=0;strokeColor=#3333FF;" edge="1" parent="Ur9ymTX70aR9tCa4kkiK-61">
          <mxGeometry width="50" height="50" relative="1" as="geometry">
            <mxPoint x="63" y="293" as="sourcePoint" />
            <mxPoint x="85" y="293" as="targetPoint" />
          </mxGeometry>
        </mxCell>
        <mxCell id="Ur9ymTX70aR9tCa4kkiK-274" value="" style="endArrow=none;html=1;rounded=0;fontFamily=Helvetica;fontSize=11;fontColor=default;labelBackgroundColor=default;resizable=0;strokeColor=#3333FF;" edge="1" parent="Ur9ymTX70aR9tCa4kkiK-61">
          <mxGeometry width="50" height="50" relative="1" as="geometry">
            <mxPoint x="95" y="296" as="sourcePoint" />
            <mxPoint x="117" y="296" as="targetPoint" />
          </mxGeometry>
        </mxCell>
        <mxCell id="Ur9ymTX70aR9tCa4kkiK-275" value="" style="endArrow=none;html=1;rounded=0;fontFamily=Helvetica;fontSize=11;fontColor=default;labelBackgroundColor=default;resizable=0;strokeColor=#3333FF;" edge="1" parent="Ur9ymTX70aR9tCa4kkiK-61">
          <mxGeometry width="50" height="50" relative="1" as="geometry">
            <mxPoint x="95" y="293" as="sourcePoint" />
            <mxPoint x="117" y="293" as="targetPoint" />
          </mxGeometry>
        </mxCell>
        <mxCell id="Ur9ymTX70aR9tCa4kkiK-276" value="" style="endArrow=none;html=1;rounded=0;fontFamily=Helvetica;fontSize=11;fontColor=default;labelBackgroundColor=default;resizable=0;strokeColor=#3333FF;" edge="1" parent="Ur9ymTX70aR9tCa4kkiK-61">
          <mxGeometry width="50" height="50" relative="1" as="geometry">
            <mxPoint x="127" y="296" as="sourcePoint" />
            <mxPoint x="149" y="296" as="targetPoint" />
          </mxGeometry>
        </mxCell>
        <mxCell id="Ur9ymTX70aR9tCa4kkiK-277" value="" style="endArrow=none;html=1;rounded=0;fontFamily=Helvetica;fontSize=11;fontColor=default;labelBackgroundColor=default;resizable=0;strokeColor=#3333FF;" edge="1" parent="Ur9ymTX70aR9tCa4kkiK-61">
          <mxGeometry width="50" height="50" relative="1" as="geometry">
            <mxPoint x="127" y="293" as="sourcePoint" />
            <mxPoint x="149" y="293" as="targetPoint" />
          </mxGeometry>
        </mxCell>
        <mxCell id="Ur9ymTX70aR9tCa4kkiK-278" value="" style="endArrow=none;html=1;rounded=0;fontFamily=Helvetica;fontSize=11;fontColor=default;labelBackgroundColor=default;resizable=0;strokeColor=#3333FF;" edge="1" parent="Ur9ymTX70aR9tCa4kkiK-61">
          <mxGeometry width="50" height="50" relative="1" as="geometry">
            <mxPoint x="32" y="212" as="sourcePoint" />
            <mxPoint x="54" y="212" as="targetPoint" />
          </mxGeometry>
        </mxCell>
        <mxCell id="Ur9ymTX70aR9tCa4kkiK-279" value="" style="endArrow=none;html=1;rounded=0;fontFamily=Helvetica;fontSize=11;fontColor=default;labelBackgroundColor=default;resizable=0;strokeColor=#3333FF;" edge="1" parent="Ur9ymTX70aR9tCa4kkiK-61">
          <mxGeometry width="50" height="50" relative="1" as="geometry">
            <mxPoint x="32" y="209" as="sourcePoint" />
            <mxPoint x="54" y="209" as="targetPoint" />
          </mxGeometry>
        </mxCell>
        <mxCell id="Ur9ymTX70aR9tCa4kkiK-280" value="" style="endArrow=none;html=1;rounded=0;fontFamily=Helvetica;fontSize=11;fontColor=default;labelBackgroundColor=default;resizable=0;strokeColor=#3333FF;" edge="1" parent="Ur9ymTX70aR9tCa4kkiK-61">
          <mxGeometry width="50" height="50" relative="1" as="geometry">
            <mxPoint x="64" y="212" as="sourcePoint" />
            <mxPoint x="86" y="212" as="targetPoint" />
          </mxGeometry>
        </mxCell>
        <mxCell id="Ur9ymTX70aR9tCa4kkiK-281" value="" style="endArrow=none;html=1;rounded=0;fontFamily=Helvetica;fontSize=11;fontColor=default;labelBackgroundColor=default;resizable=0;strokeColor=#3333FF;" edge="1" parent="Ur9ymTX70aR9tCa4kkiK-61">
          <mxGeometry width="50" height="50" relative="1" as="geometry">
            <mxPoint x="64" y="209" as="sourcePoint" />
            <mxPoint x="86" y="209" as="targetPoint" />
          </mxGeometry>
        </mxCell>
        <mxCell id="Ur9ymTX70aR9tCa4kkiK-282" value="" style="endArrow=none;html=1;rounded=0;fontFamily=Helvetica;fontSize=11;fontColor=default;labelBackgroundColor=default;resizable=0;strokeColor=#3333FF;" edge="1" parent="Ur9ymTX70aR9tCa4kkiK-61">
          <mxGeometry width="50" height="50" relative="1" as="geometry">
            <mxPoint x="96" y="212" as="sourcePoint" />
            <mxPoint x="118" y="212" as="targetPoint" />
          </mxGeometry>
        </mxCell>
        <mxCell id="Ur9ymTX70aR9tCa4kkiK-283" value="" style="endArrow=none;html=1;rounded=0;fontFamily=Helvetica;fontSize=11;fontColor=default;labelBackgroundColor=default;resizable=0;strokeColor=#3333FF;" edge="1" parent="Ur9ymTX70aR9tCa4kkiK-61">
          <mxGeometry width="50" height="50" relative="1" as="geometry">
            <mxPoint x="96" y="209" as="sourcePoint" />
            <mxPoint x="118" y="209" as="targetPoint" />
          </mxGeometry>
        </mxCell>
        <mxCell id="Ur9ymTX70aR9tCa4kkiK-284" value="" style="endArrow=none;html=1;rounded=0;fontFamily=Helvetica;fontSize=11;fontColor=default;labelBackgroundColor=default;resizable=0;strokeColor=#3333FF;" edge="1" parent="Ur9ymTX70aR9tCa4kkiK-61">
          <mxGeometry width="50" height="50" relative="1" as="geometry">
            <mxPoint x="128" y="212" as="sourcePoint" />
            <mxPoint x="150" y="212" as="targetPoint" />
          </mxGeometry>
        </mxCell>
        <mxCell id="Ur9ymTX70aR9tCa4kkiK-285" value="" style="endArrow=none;html=1;rounded=0;fontFamily=Helvetica;fontSize=11;fontColor=default;labelBackgroundColor=default;resizable=0;strokeColor=#3333FF;" edge="1" parent="Ur9ymTX70aR9tCa4kkiK-61">
          <mxGeometry width="50" height="50" relative="1" as="geometry">
            <mxPoint x="128" y="209" as="sourcePoint" />
            <mxPoint x="150" y="209" as="targetPoint" />
          </mxGeometry>
        </mxCell>
        <mxCell id="Ur9ymTX70aR9tCa4kkiK-286" value="" style="endArrow=none;html=1;rounded=0;fontFamily=Helvetica;fontSize=11;fontColor=default;labelBackgroundColor=default;resizable=0;strokeColor=#3333FF;" edge="1" parent="Ur9ymTX70aR9tCa4kkiK-61">
          <mxGeometry width="50" height="50" relative="1" as="geometry">
            <mxPoint x="31" y="302" as="sourcePoint" />
            <mxPoint x="53" y="302" as="targetPoint" />
          </mxGeometry>
        </mxCell>
        <mxCell id="Ur9ymTX70aR9tCa4kkiK-287" value="" style="endArrow=none;html=1;rounded=0;fontFamily=Helvetica;fontSize=11;fontColor=default;labelBackgroundColor=default;resizable=0;strokeColor=#3333FF;" edge="1" parent="Ur9ymTX70aR9tCa4kkiK-61">
          <mxGeometry width="50" height="50" relative="1" as="geometry">
            <mxPoint x="31" y="299" as="sourcePoint" />
            <mxPoint x="53" y="299" as="targetPoint" />
          </mxGeometry>
        </mxCell>
        <mxCell id="Ur9ymTX70aR9tCa4kkiK-288" value="" style="endArrow=none;html=1;rounded=0;fontFamily=Helvetica;fontSize=11;fontColor=default;labelBackgroundColor=default;resizable=0;strokeColor=#3333FF;" edge="1" parent="Ur9ymTX70aR9tCa4kkiK-61">
          <mxGeometry width="50" height="50" relative="1" as="geometry">
            <mxPoint x="63" y="302" as="sourcePoint" />
            <mxPoint x="85" y="302" as="targetPoint" />
          </mxGeometry>
        </mxCell>
        <mxCell id="Ur9ymTX70aR9tCa4kkiK-289" value="" style="endArrow=none;html=1;rounded=0;fontFamily=Helvetica;fontSize=11;fontColor=default;labelBackgroundColor=default;resizable=0;strokeColor=#3333FF;" edge="1" parent="Ur9ymTX70aR9tCa4kkiK-61">
          <mxGeometry width="50" height="50" relative="1" as="geometry">
            <mxPoint x="63" y="299" as="sourcePoint" />
            <mxPoint x="85" y="299" as="targetPoint" />
          </mxGeometry>
        </mxCell>
        <mxCell id="Ur9ymTX70aR9tCa4kkiK-290" value="" style="endArrow=none;html=1;rounded=0;fontFamily=Helvetica;fontSize=11;fontColor=default;labelBackgroundColor=default;resizable=0;strokeColor=#3333FF;" edge="1" parent="Ur9ymTX70aR9tCa4kkiK-61">
          <mxGeometry width="50" height="50" relative="1" as="geometry">
            <mxPoint x="95" y="302" as="sourcePoint" />
            <mxPoint x="117" y="302" as="targetPoint" />
          </mxGeometry>
        </mxCell>
        <mxCell id="Ur9ymTX70aR9tCa4kkiK-291" value="" style="endArrow=none;html=1;rounded=0;fontFamily=Helvetica;fontSize=11;fontColor=default;labelBackgroundColor=default;resizable=0;strokeColor=#3333FF;" edge="1" parent="Ur9ymTX70aR9tCa4kkiK-61">
          <mxGeometry width="50" height="50" relative="1" as="geometry">
            <mxPoint x="95" y="299" as="sourcePoint" />
            <mxPoint x="117" y="299" as="targetPoint" />
          </mxGeometry>
        </mxCell>
        <mxCell id="Ur9ymTX70aR9tCa4kkiK-292" value="" style="endArrow=none;html=1;rounded=0;fontFamily=Helvetica;fontSize=11;fontColor=default;labelBackgroundColor=default;resizable=0;strokeColor=#3333FF;" edge="1" parent="Ur9ymTX70aR9tCa4kkiK-61">
          <mxGeometry width="50" height="50" relative="1" as="geometry">
            <mxPoint x="127" y="302" as="sourcePoint" />
            <mxPoint x="149" y="302" as="targetPoint" />
          </mxGeometry>
        </mxCell>
        <mxCell id="Ur9ymTX70aR9tCa4kkiK-293" value="" style="endArrow=none;html=1;rounded=0;fontFamily=Helvetica;fontSize=11;fontColor=default;labelBackgroundColor=default;resizable=0;strokeColor=#3333FF;" edge="1" parent="Ur9ymTX70aR9tCa4kkiK-61">
          <mxGeometry width="50" height="50" relative="1" as="geometry">
            <mxPoint x="127" y="299" as="sourcePoint" />
            <mxPoint x="149" y="299" as="targetPoint" />
          </mxGeometry>
        </mxCell>
        <mxCell id="Ur9ymTX70aR9tCa4kkiK-156" value="Eiger" style="text;html=1;align=center;verticalAlign=middle;resizable=0;points=[];autosize=1;strokeColor=none;fillColor=none;" vertex="1" parent="1">
          <mxGeometry x="386" y="20" width="46" height="26" as="geometry" />
        </mxCell>
        <mxCell id="Ur9ymTX70aR9tCa4kkiK-158" value="&lt;font style=&quot;color: rgb(126, 166, 224);&quot;&gt;Single Module&lt;/font&gt;" style="rounded=1;whiteSpace=wrap;html=1;labelPosition=center;verticalLabelPosition=top;align=center;verticalAlign=bottom;fontSize=9;fillColor=#dae8fc;gradientColor=#7ea6e0;strokeColor=#6c8ebf;" vertex="1" parent="1">
          <mxGeometry x="74" y="99" width="132" height="68" as="geometry" />
        </mxCell>
        <mxCell id="Ur9ymTX70aR9tCa4kkiK-159" value="&lt;font style=&quot;color: rgb(153, 153, 153);&quot;&gt;3&lt;/font&gt;" style="rounded=1;whiteSpace=wrap;html=1;fillColor=#d5e8d4;strokeColor=#82b366;opacity=80;" vertex="1" parent="1">
          <mxGeometry x="141" y="102" width="30" height="30" as="geometry" />
        </mxCell>
        <mxCell id="Ur9ymTX70aR9tCa4kkiK-160" value="&lt;font style=&quot;color: rgb(153, 153, 153);&quot;&gt;1&lt;/font&gt;" style="rounded=1;whiteSpace=wrap;html=1;fillColor=#d5e8d4;strokeColor=#82b366;opacity=80;" vertex="1" parent="1">
          <mxGeometry x="77" y="102" width="30" height="30" as="geometry" />
        </mxCell>
        <mxCell id="Ur9ymTX70aR9tCa4kkiK-161" value="&lt;font style=&quot;color: rgb(153, 153, 153);&quot;&gt;2&lt;/font&gt;" style="rounded=1;whiteSpace=wrap;html=1;fillColor=#d5e8d4;strokeColor=#82b366;opacity=80;" vertex="1" parent="1">
          <mxGeometry x="109" y="102" width="30" height="30" as="geometry" />
        </mxCell>
        <mxCell id="Ur9ymTX70aR9tCa4kkiK-162" value="&lt;font style=&quot;color: rgb(153, 153, 153);&quot;&gt;4&lt;/font&gt;" style="rounded=1;whiteSpace=wrap;html=1;fillColor=#d5e8d4;strokeColor=#82B366;opacity=80;" vertex="1" parent="1">
          <mxGeometry x="173" y="102" width="30" height="30" as="geometry" />
        </mxCell>
        <mxCell id="Ur9ymTX70aR9tCa4kkiK-163" value="&lt;font style=&quot;color: rgb(153, 153, 153);&quot;&gt;7&lt;/font&gt;" style="rounded=1;whiteSpace=wrap;html=1;fillColor=#d5e8d4;strokeColor=#82b366;opacity=80;" vertex="1" parent="1">
          <mxGeometry x="141" y="134" width="30" height="30" as="geometry" />
        </mxCell>
        <mxCell id="Ur9ymTX70aR9tCa4kkiK-164" value="&lt;font style=&quot;color: rgb(153, 153, 153);&quot;&gt;5&lt;/font&gt;" style="rounded=1;whiteSpace=wrap;html=1;fillColor=#d5e8d4;strokeColor=#82b366;opacity=80;" vertex="1" parent="1">
          <mxGeometry x="77" y="134" width="30" height="30" as="geometry" />
        </mxCell>
        <mxCell id="Ur9ymTX70aR9tCa4kkiK-165" value="&lt;font style=&quot;color: rgb(153, 153, 153);&quot;&gt;6&lt;/font&gt;" style="rounded=1;whiteSpace=wrap;html=1;fillColor=#d5e8d4;strokeColor=#82b366;opacity=80;" vertex="1" parent="1">
          <mxGeometry x="109" y="134" width="30" height="30" as="geometry" />
        </mxCell>
        <mxCell id="Ur9ymTX70aR9tCa4kkiK-166" value="&lt;font style=&quot;color: rgb(153, 153, 153);&quot;&gt;8&lt;/font&gt;" style="rounded=1;whiteSpace=wrap;html=1;fillColor=#d5e8d4;strokeColor=#82b366;opacity=80;" vertex="1" parent="1">
          <mxGeometry x="173" y="134" width="30" height="30" as="geometry" />
        </mxCell>
        <mxCell id="Ur9ymTX70aR9tCa4kkiK-167" value="Outer Data Port" style="fillColor=#009900;aspect=fixed;sketch=0;pointerEvents=1;shadow=0;dashed=0;html=1;strokeColor=none;labelPosition=center;verticalLabelPosition=bottom;outlineConnect=0;verticalAlign=top;align=center;shape=mxgraph.openstack.neutron_port;rotation=-90;textDirection=vertical-lr;fontSize=6;spacing=0;fontColor=#009900;spacingTop=20;" vertex="1" parent="1">
          <mxGeometry x="206" y="114" width="10" height="10" as="geometry" />
        </mxCell>
        <mxCell id="Ur9ymTX70aR9tCa4kkiK-168" value="Inner Data Port" style="fillColor=#808080;aspect=fixed;sketch=0;pointerEvents=1;shadow=0;dashed=0;html=1;strokeColor=none;labelPosition=center;verticalLabelPosition=bottom;outlineConnect=0;verticalAlign=top;align=center;shape=mxgraph.openstack.neutron_port;rotation=-90;textDirection=vertical-lr;fontColor=#999999;fontSize=6;spacing=0;spacingTop=20;" vertex="1" parent="1">
          <mxGeometry x="206" y="141" width="10" height="10" as="geometry" />
        </mxCell>
        <mxCell id="Ur9ymTX70aR9tCa4kkiK-169" value="" style="shape=flexArrow;endArrow=classic;html=1;rounded=0;fillColor=#d5e8d4;gradientColor=#97d077;strokeColor=#82b366;endWidth=4.077293815593892;endSize=2.4201342281879197;width=3.6241610738255035;" edge="1" parent="1">
          <mxGeometry width="50" height="50" relative="1" as="geometry">
            <mxPoint x="217" y="118.93" as="sourcePoint" />
            <mxPoint x="237" y="118.93" as="targetPoint" />
          </mxGeometry>
        </mxCell>
        <mxCell id="Ur9ymTX70aR9tCa4kkiK-170" value="256 pixels" style="text;strokeColor=none;align=center;fillColor=none;html=1;verticalAlign=middle;whiteSpace=wrap;rounded=0;fontFamily=Helvetica;fontSize=4;fontColor=#999999;labelBackgroundColor=none;resizable=0;" vertex="1" parent="1">
          <mxGeometry x="63" y="90" width="60" height="30" as="geometry" />
        </mxCell>
        <mxCell id="Ur9ymTX70aR9tCa4kkiK-171" value="256 pixels" style="text;strokeColor=none;align=center;fillColor=none;html=1;verticalAlign=middle;whiteSpace=wrap;rounded=0;fontFamily=Helvetica;fontSize=4;fontColor=#999999;labelBackgroundColor=none;resizable=0;rotation=-90;" vertex="1" parent="1">
          <mxGeometry x="50" y="103" width="60" height="30" as="geometry" />
        </mxCell>
        <mxCell id="Ur9ymTX70aR9tCa4kkiK-172" value="&lt;font style=&quot;color: rgb(130, 179, 102);&quot;&gt;8 Chips&lt;/font&gt;" style="text;strokeColor=none;align=center;fillColor=none;html=1;verticalAlign=middle;whiteSpace=wrap;rounded=0;fontFamily=Helvetica;fontSize=6;fontColor=#999999;labelBackgroundColor=none;resizable=0;" vertex="1" parent="1">
          <mxGeometry x="113" y="157" width="60" height="30" as="geometry" />
        </mxCell>
        <mxCell id="Ur9ymTX70aR9tCa4kkiK-173" value="" style="rounded=1;whiteSpace=wrap;html=1;fillColor=#dae8fc;strokeColor=#6c8ebf;labelPosition=center;verticalLabelPosition=top;align=center;verticalAlign=bottom;fontSize=9;gradientColor=#7ea6e0;" vertex="1" parent="1">
          <mxGeometry x="73" y="209" width="132" height="68" as="geometry" />
        </mxCell>
        <mxCell id="Ur9ymTX70aR9tCa4kkiK-174" value="&lt;font style=&quot;color: rgb(153, 153, 153);&quot;&gt;3&lt;/font&gt;" style="rounded=1;whiteSpace=wrap;html=1;fillColor=#D5E8D4;strokeColor=#82B366;opacity=80;gradientColor=none;" vertex="1" parent="1">
          <mxGeometry x="140" y="212" width="30" height="30" as="geometry" />
        </mxCell>
        <mxCell id="Ur9ymTX70aR9tCa4kkiK-175" value="&lt;font style=&quot;color: rgb(153, 153, 153);&quot;&gt;1&lt;/font&gt;" style="rounded=1;whiteSpace=wrap;html=1;fillColor=#D5E8D4;strokeColor=#82B366;opacity=80;gradientColor=none;" vertex="1" parent="1">
          <mxGeometry x="76" y="212" width="30" height="30" as="geometry" />
        </mxCell>
        <mxCell id="Ur9ymTX70aR9tCa4kkiK-176" value="&lt;font style=&quot;color: rgb(153, 153, 153);&quot;&gt;2&lt;/font&gt;" style="rounded=1;whiteSpace=wrap;html=1;fillColor=#D5E8D4;strokeColor=#82B366;opacity=80;gradientColor=none;" vertex="1" parent="1">
          <mxGeometry x="108" y="212" width="30" height="30" as="geometry" />
        </mxCell>
        <mxCell id="Ur9ymTX70aR9tCa4kkiK-177" value="&lt;font style=&quot;color: rgb(153, 153, 153);&quot;&gt;4&lt;/font&gt;" style="rounded=1;whiteSpace=wrap;html=1;fillColor=#D5E8D4;strokeColor=#82B366;opacity=80;gradientColor=none;" vertex="1" parent="1">
          <mxGeometry x="172" y="212" width="30" height="30" as="geometry" />
        </mxCell>
        <mxCell id="Ur9ymTX70aR9tCa4kkiK-178" value="&lt;font style=&quot;color: rgb(153, 153, 153);&quot;&gt;7&lt;/font&gt;" style="rounded=1;whiteSpace=wrap;html=1;fillColor=#dae8fc;strokeColor=#6c8ebf;opacity=80;gradientColor=none;" vertex="1" parent="1">
          <mxGeometry x="140" y="244" width="30" height="30" as="geometry" />
        </mxCell>
        <mxCell id="Ur9ymTX70aR9tCa4kkiK-179" value="&lt;font style=&quot;color: rgb(153, 153, 153);&quot;&gt;5&lt;/font&gt;" style="rounded=1;whiteSpace=wrap;html=1;fillColor=#dae8fc;strokeColor=#6c8ebf;opacity=80;gradientColor=none;" vertex="1" parent="1">
          <mxGeometry x="76" y="244" width="30" height="30" as="geometry" />
        </mxCell>
        <mxCell id="Ur9ymTX70aR9tCa4kkiK-180" value="&lt;font style=&quot;color: rgb(153, 153, 153);&quot;&gt;6&lt;/font&gt;" style="rounded=1;whiteSpace=wrap;html=1;fillColor=#dae8fc;strokeColor=#6c8ebf;opacity=80;gradientColor=none;" vertex="1" parent="1">
          <mxGeometry x="108" y="244" width="30" height="30" as="geometry" />
        </mxCell>
        <mxCell id="Ur9ymTX70aR9tCa4kkiK-181" value="&lt;font style=&quot;color: rgb(153, 153, 153);&quot;&gt;8&lt;/font&gt;" style="rounded=1;whiteSpace=wrap;html=1;fillColor=#dae8fc;strokeColor=#6c8ebf;opacity=80;gradientColor=none;" vertex="1" parent="1">
          <mxGeometry x="172" y="244" width="30" height="30" as="geometry" />
        </mxCell>
        <mxCell id="Ur9ymTX70aR9tCa4kkiK-182" value="" style="shape=flexArrow;endArrow=classic;html=1;rounded=0;fillColor=#E0E0E0;gradientColor=#999999;strokeColor=#999999;endWidth=4.077293815593892;endSize=2.4201342281879197;width=3.6241610738255035;" edge="1" parent="1">
          <mxGeometry width="50" height="50" relative="1" as="geometry">
            <mxPoint x="217" y="146" as="sourcePoint" />
            <mxPoint x="237" y="146" as="targetPoint" />
          </mxGeometry>
        </mxCell>
        <mxCell id="Ur9ymTX70aR9tCa4kkiK-183" value="Outer Data Port" style="fillColor=#009900;aspect=fixed;sketch=0;pointerEvents=1;shadow=0;dashed=0;html=1;strokeColor=none;labelPosition=center;verticalLabelPosition=bottom;outlineConnect=0;verticalAlign=top;align=center;shape=mxgraph.openstack.neutron_port;rotation=-90;textDirection=vertical-lr;fontSize=6;spacing=0;fontColor=#009900;spacingTop=20;" vertex="1" parent="1">
          <mxGeometry x="205" y="221" width="10" height="10" as="geometry" />
        </mxCell>
        <mxCell id="Ur9ymTX70aR9tCa4kkiK-184" value="" style="shape=flexArrow;endArrow=classic;html=1;rounded=0;fillColor=#d5e8d4;gradientColor=#97d077;strokeColor=#82b366;endWidth=4.077293815593892;endSize=2.4201342281879197;width=3.6241610738255035;" edge="1" parent="1">
          <mxGeometry width="50" height="50" relative="1" as="geometry">
            <mxPoint x="217" y="225.93" as="sourcePoint" />
            <mxPoint x="237" y="225.93" as="targetPoint" />
          </mxGeometry>
        </mxCell>
        <mxCell id="Ur9ymTX70aR9tCa4kkiK-185" value="Inner Data Port" style="fillColor=#3399FF;aspect=fixed;sketch=0;pointerEvents=1;shadow=0;dashed=0;html=1;strokeColor=none;labelPosition=center;verticalLabelPosition=bottom;outlineConnect=0;verticalAlign=top;align=center;shape=mxgraph.openstack.neutron_port;rotation=-90;textDirection=vertical-lr;fontSize=6;spacing=0;fontColor=#3399FF;spacingTop=20;" vertex="1" parent="1">
          <mxGeometry x="205" y="252" width="10" height="10" as="geometry" />
        </mxCell>
        <mxCell id="Ur9ymTX70aR9tCa4kkiK-186" value="" style="shape=flexArrow;endArrow=classic;html=1;rounded=0;fillColor=#dae8fc;gradientColor=none;strokeColor=#6c8ebf;endWidth=4.077293815593892;endSize=2.4201342281879197;width=3.6241610738255035;fontColor=#3399FF;" edge="1" parent="1">
          <mxGeometry width="50" height="50" relative="1" as="geometry">
            <mxPoint x="217" y="256.93" as="sourcePoint" />
            <mxPoint x="237" y="256.93" as="targetPoint" />
          </mxGeometry>
        </mxCell>
        <mxCell id="Ur9ymTX70aR9tCa4kkiK-187" value="" style="rounded=1;whiteSpace=wrap;html=1;labelPosition=center;verticalLabelPosition=top;align=center;verticalAlign=bottom;fontSize=9;fillColor=#dae8fc;gradientColor=#7ea6e0;strokeColor=#6c8ebf;" vertex="1" parent="1">
          <mxGeometry x="76" y="311" width="132" height="68" as="geometry" />
        </mxCell>
        <mxCell id="Ur9ymTX70aR9tCa4kkiK-188" value="&lt;font style=&quot;color: rgb(153, 153, 153);&quot;&gt;3&lt;/font&gt;" style="rounded=1;whiteSpace=wrap;html=1;fillColor=#d5e8d4;strokeColor=#82b366;opacity=80;" vertex="1" parent="1">
          <mxGeometry x="143" y="314" width="30" height="30" as="geometry" />
        </mxCell>
        <mxCell id="Ur9ymTX70aR9tCa4kkiK-189" value="&lt;font style=&quot;color: rgb(153, 153, 153);&quot;&gt;1&lt;/font&gt;" style="rounded=1;whiteSpace=wrap;html=1;fillColor=#d5e8d4;strokeColor=#82b366;opacity=80;" vertex="1" parent="1">
          <mxGeometry x="79" y="314" width="30" height="30" as="geometry" />
        </mxCell>
        <mxCell id="Ur9ymTX70aR9tCa4kkiK-190" value="&lt;font style=&quot;color: rgb(153, 153, 153);&quot;&gt;2&lt;/font&gt;" style="rounded=1;whiteSpace=wrap;html=1;fillColor=#d5e8d4;strokeColor=#82b366;opacity=80;" vertex="1" parent="1">
          <mxGeometry x="111" y="314" width="30" height="30" as="geometry" />
        </mxCell>
        <mxCell id="Ur9ymTX70aR9tCa4kkiK-191" value="&lt;font style=&quot;color: rgb(153, 153, 153);&quot;&gt;4&lt;/font&gt;" style="rounded=1;whiteSpace=wrap;html=1;fillColor=#d5e8d4;strokeColor=#82B366;opacity=80;" vertex="1" parent="1">
          <mxGeometry x="175" y="314" width="30" height="30" as="geometry" />
        </mxCell>
        <mxCell id="Ur9ymTX70aR9tCa4kkiK-192" value="&lt;font style=&quot;color: rgb(153, 153, 153);&quot;&gt;7&lt;/font&gt;" style="rounded=1;whiteSpace=wrap;html=1;fillColor=#d5e8d4;strokeColor=#82b366;opacity=80;" vertex="1" parent="1">
          <mxGeometry x="143" y="346" width="30" height="30" as="geometry" />
        </mxCell>
        <mxCell id="Ur9ymTX70aR9tCa4kkiK-193" value="&lt;font style=&quot;color: rgb(153, 153, 153);&quot;&gt;5&lt;/font&gt;" style="rounded=1;whiteSpace=wrap;html=1;fillColor=#d5e8d4;strokeColor=#82b366;opacity=80;" vertex="1" parent="1">
          <mxGeometry x="79" y="346" width="30" height="30" as="geometry" />
        </mxCell>
        <mxCell id="Ur9ymTX70aR9tCa4kkiK-194" value="&lt;font style=&quot;color: rgb(153, 153, 153);&quot;&gt;6&lt;/font&gt;" style="rounded=1;whiteSpace=wrap;html=1;fillColor=#d5e8d4;strokeColor=#82b366;opacity=80;" vertex="1" parent="1">
          <mxGeometry x="111" y="346" width="30" height="30" as="geometry" />
        </mxCell>
        <mxCell id="Ur9ymTX70aR9tCa4kkiK-195" value="&lt;font style=&quot;color: rgb(153, 153, 153);&quot;&gt;8&lt;/font&gt;" style="rounded=1;whiteSpace=wrap;html=1;fillColor=#d5e8d4;strokeColor=#82b366;opacity=80;" vertex="1" parent="1">
          <mxGeometry x="175" y="346" width="30" height="30" as="geometry" />
        </mxCell>
        <mxCell id="Ur9ymTX70aR9tCa4kkiK-196" value="" style="endArrow=none;html=1;rounded=0;fontFamily=Helvetica;fontSize=11;fontColor=default;labelBackgroundColor=default;resizable=0;strokeColor=#3333FF;" edge="1" parent="1">
          <mxGeometry width="50" height="50" relative="1" as="geometry">
            <mxPoint x="83" y="341" as="sourcePoint" />
            <mxPoint x="105" y="341" as="targetPoint" />
          </mxGeometry>
        </mxCell>
        <mxCell id="Ur9ymTX70aR9tCa4kkiK-197" value="" style="endArrow=none;html=1;rounded=0;fontFamily=Helvetica;fontSize=11;fontColor=default;labelBackgroundColor=default;resizable=0;strokeColor=#3333FF;" edge="1" parent="1">
          <mxGeometry width="50" height="50" relative="1" as="geometry">
            <mxPoint x="83" y="338" as="sourcePoint" />
            <mxPoint x="105" y="338" as="targetPoint" />
          </mxGeometry>
        </mxCell>
        <mxCell id="Ur9ymTX70aR9tCa4kkiK-198" value="" style="endArrow=none;html=1;rounded=0;fontFamily=Helvetica;fontSize=11;fontColor=default;labelBackgroundColor=default;resizable=0;strokeColor=#3333FF;" edge="1" parent="1">
          <mxGeometry width="50" height="50" relative="1" as="geometry">
            <mxPoint x="115" y="341" as="sourcePoint" />
            <mxPoint x="137" y="341" as="targetPoint" />
          </mxGeometry>
        </mxCell>
        <mxCell id="Ur9ymTX70aR9tCa4kkiK-199" value="" style="endArrow=none;html=1;rounded=0;fontFamily=Helvetica;fontSize=11;fontColor=default;labelBackgroundColor=default;resizable=0;strokeColor=#3333FF;" edge="1" parent="1">
          <mxGeometry width="50" height="50" relative="1" as="geometry">
            <mxPoint x="115" y="338" as="sourcePoint" />
            <mxPoint x="137" y="338" as="targetPoint" />
          </mxGeometry>
        </mxCell>
        <mxCell id="Ur9ymTX70aR9tCa4kkiK-200" value="" style="endArrow=none;html=1;rounded=0;fontFamily=Helvetica;fontSize=11;fontColor=default;labelBackgroundColor=default;resizable=0;strokeColor=#3333FF;" edge="1" parent="1">
          <mxGeometry width="50" height="50" relative="1" as="geometry">
            <mxPoint x="147" y="341" as="sourcePoint" />
            <mxPoint x="169" y="341" as="targetPoint" />
          </mxGeometry>
        </mxCell>
        <mxCell id="Ur9ymTX70aR9tCa4kkiK-201" value="" style="endArrow=none;html=1;rounded=0;fontFamily=Helvetica;fontSize=11;fontColor=default;labelBackgroundColor=default;resizable=0;strokeColor=#3333FF;" edge="1" parent="1">
          <mxGeometry width="50" height="50" relative="1" as="geometry">
            <mxPoint x="147" y="338" as="sourcePoint" />
            <mxPoint x="169" y="338" as="targetPoint" />
          </mxGeometry>
        </mxCell>
        <mxCell id="Ur9ymTX70aR9tCa4kkiK-202" value="" style="endArrow=none;html=1;rounded=0;fontFamily=Helvetica;fontSize=11;fontColor=default;labelBackgroundColor=default;resizable=0;strokeColor=#3333FF;" edge="1" parent="1">
          <mxGeometry width="50" height="50" relative="1" as="geometry">
            <mxPoint x="179" y="341" as="sourcePoint" />
            <mxPoint x="201" y="341" as="targetPoint" />
          </mxGeometry>
        </mxCell>
        <mxCell id="Ur9ymTX70aR9tCa4kkiK-203" value="" style="endArrow=none;html=1;rounded=0;fontFamily=Helvetica;fontSize=11;fontColor=default;labelBackgroundColor=default;resizable=0;strokeColor=#3333FF;" edge="1" parent="1">
          <mxGeometry width="50" height="50" relative="1" as="geometry">
            <mxPoint x="179" y="338" as="sourcePoint" />
            <mxPoint x="201" y="338" as="targetPoint" />
          </mxGeometry>
        </mxCell>
        <mxCell id="Ur9ymTX70aR9tCa4kkiK-204" value="" style="endArrow=none;html=1;rounded=0;fontFamily=Helvetica;fontSize=11;fontColor=default;labelBackgroundColor=default;resizable=0;strokeColor=#3333FF;" edge="1" parent="1">
          <mxGeometry width="50" height="50" relative="1" as="geometry">
            <mxPoint x="83" y="352" as="sourcePoint" />
            <mxPoint x="105" y="352" as="targetPoint" />
          </mxGeometry>
        </mxCell>
        <mxCell id="Ur9ymTX70aR9tCa4kkiK-205" value="" style="endArrow=none;html=1;rounded=0;fontFamily=Helvetica;fontSize=11;fontColor=default;labelBackgroundColor=default;resizable=0;strokeColor=#3333FF;" edge="1" parent="1">
          <mxGeometry width="50" height="50" relative="1" as="geometry">
            <mxPoint x="83" y="349" as="sourcePoint" />
            <mxPoint x="105" y="349" as="targetPoint" />
          </mxGeometry>
        </mxCell>
        <mxCell id="Ur9ymTX70aR9tCa4kkiK-206" value="" style="endArrow=none;html=1;rounded=0;fontFamily=Helvetica;fontSize=11;fontColor=default;labelBackgroundColor=default;resizable=0;strokeColor=#3333FF;" edge="1" parent="1">
          <mxGeometry width="50" height="50" relative="1" as="geometry">
            <mxPoint x="115" y="352" as="sourcePoint" />
            <mxPoint x="137" y="352" as="targetPoint" />
          </mxGeometry>
        </mxCell>
        <mxCell id="Ur9ymTX70aR9tCa4kkiK-207" value="" style="endArrow=none;html=1;rounded=0;fontFamily=Helvetica;fontSize=11;fontColor=default;labelBackgroundColor=default;resizable=0;strokeColor=#3333FF;" edge="1" parent="1">
          <mxGeometry width="50" height="50" relative="1" as="geometry">
            <mxPoint x="115" y="349" as="sourcePoint" />
            <mxPoint x="137" y="349" as="targetPoint" />
          </mxGeometry>
        </mxCell>
        <mxCell id="Ur9ymTX70aR9tCa4kkiK-208" value="" style="endArrow=none;html=1;rounded=0;fontFamily=Helvetica;fontSize=11;fontColor=default;labelBackgroundColor=default;resizable=0;strokeColor=#3333FF;" edge="1" parent="1">
          <mxGeometry width="50" height="50" relative="1" as="geometry">
            <mxPoint x="147" y="352" as="sourcePoint" />
            <mxPoint x="169" y="352" as="targetPoint" />
          </mxGeometry>
        </mxCell>
        <mxCell id="Ur9ymTX70aR9tCa4kkiK-209" value="" style="endArrow=none;html=1;rounded=0;fontFamily=Helvetica;fontSize=11;fontColor=default;labelBackgroundColor=default;resizable=0;strokeColor=#3333FF;" edge="1" parent="1">
          <mxGeometry width="50" height="50" relative="1" as="geometry">
            <mxPoint x="147" y="349" as="sourcePoint" />
            <mxPoint x="169" y="349" as="targetPoint" />
          </mxGeometry>
        </mxCell>
        <mxCell id="Ur9ymTX70aR9tCa4kkiK-210" value="" style="endArrow=none;html=1;rounded=0;fontFamily=Helvetica;fontSize=11;fontColor=default;labelBackgroundColor=default;resizable=0;strokeColor=#3333FF;" edge="1" parent="1">
          <mxGeometry width="50" height="50" relative="1" as="geometry">
            <mxPoint x="179" y="352" as="sourcePoint" />
            <mxPoint x="201" y="352" as="targetPoint" />
          </mxGeometry>
        </mxCell>
        <mxCell id="Ur9ymTX70aR9tCa4kkiK-211" value="" style="endArrow=none;html=1;rounded=0;fontFamily=Helvetica;fontSize=11;fontColor=default;labelBackgroundColor=default;resizable=0;strokeColor=#3333FF;" edge="1" parent="1">
          <mxGeometry width="50" height="50" relative="1" as="geometry">
            <mxPoint x="179" y="349" as="sourcePoint" />
            <mxPoint x="201" y="349" as="targetPoint" />
          </mxGeometry>
        </mxCell>
        <mxCell id="Ur9ymTX70aR9tCa4kkiK-212" value="" style="endArrow=none;html=1;rounded=0;fontFamily=Helvetica;fontSize=11;fontColor=default;labelBackgroundColor=default;resizable=0;strokeColor=#3333FF;" edge="1" parent="1">
          <mxGeometry width="50" height="50" relative="1" as="geometry">
            <mxPoint x="83" y="335" as="sourcePoint" />
            <mxPoint x="105" y="335" as="targetPoint" />
          </mxGeometry>
        </mxCell>
        <mxCell id="Ur9ymTX70aR9tCa4kkiK-213" value="" style="endArrow=none;html=1;rounded=0;fontFamily=Helvetica;fontSize=11;fontColor=default;labelBackgroundColor=default;resizable=0;strokeColor=#3333FF;" edge="1" parent="1">
          <mxGeometry width="50" height="50" relative="1" as="geometry">
            <mxPoint x="83" y="332" as="sourcePoint" />
            <mxPoint x="105" y="332" as="targetPoint" />
          </mxGeometry>
        </mxCell>
        <mxCell id="Ur9ymTX70aR9tCa4kkiK-214" value="" style="endArrow=none;html=1;rounded=0;fontFamily=Helvetica;fontSize=11;fontColor=default;labelBackgroundColor=default;resizable=0;strokeColor=#3333FF;" edge="1" parent="1">
          <mxGeometry width="50" height="50" relative="1" as="geometry">
            <mxPoint x="115" y="335" as="sourcePoint" />
            <mxPoint x="137" y="335" as="targetPoint" />
          </mxGeometry>
        </mxCell>
        <mxCell id="Ur9ymTX70aR9tCa4kkiK-215" value="" style="endArrow=none;html=1;rounded=0;fontFamily=Helvetica;fontSize=11;fontColor=default;labelBackgroundColor=default;resizable=0;strokeColor=#3333FF;" edge="1" parent="1">
          <mxGeometry width="50" height="50" relative="1" as="geometry">
            <mxPoint x="115" y="332" as="sourcePoint" />
            <mxPoint x="137" y="332" as="targetPoint" />
          </mxGeometry>
        </mxCell>
        <mxCell id="Ur9ymTX70aR9tCa4kkiK-216" value="" style="endArrow=none;html=1;rounded=0;fontFamily=Helvetica;fontSize=11;fontColor=default;labelBackgroundColor=default;resizable=0;strokeColor=#3333FF;" edge="1" parent="1">
          <mxGeometry width="50" height="50" relative="1" as="geometry">
            <mxPoint x="147" y="335" as="sourcePoint" />
            <mxPoint x="169" y="335" as="targetPoint" />
          </mxGeometry>
        </mxCell>
        <mxCell id="Ur9ymTX70aR9tCa4kkiK-217" value="" style="endArrow=none;html=1;rounded=0;fontFamily=Helvetica;fontSize=11;fontColor=default;labelBackgroundColor=default;resizable=0;strokeColor=#3333FF;" edge="1" parent="1">
          <mxGeometry width="50" height="50" relative="1" as="geometry">
            <mxPoint x="147" y="332" as="sourcePoint" />
            <mxPoint x="169" y="332" as="targetPoint" />
          </mxGeometry>
        </mxCell>
        <mxCell id="Ur9ymTX70aR9tCa4kkiK-218" value="" style="endArrow=none;html=1;rounded=0;fontFamily=Helvetica;fontSize=11;fontColor=default;labelBackgroundColor=default;resizable=0;strokeColor=#3333FF;" edge="1" parent="1">
          <mxGeometry width="50" height="50" relative="1" as="geometry">
            <mxPoint x="179" y="335" as="sourcePoint" />
            <mxPoint x="201" y="335" as="targetPoint" />
          </mxGeometry>
        </mxCell>
        <mxCell id="Ur9ymTX70aR9tCa4kkiK-219" value="" style="endArrow=none;html=1;rounded=0;fontFamily=Helvetica;fontSize=11;fontColor=default;labelBackgroundColor=default;resizable=0;strokeColor=#3333FF;" edge="1" parent="1">
          <mxGeometry width="50" height="50" relative="1" as="geometry">
            <mxPoint x="179" y="332" as="sourcePoint" />
            <mxPoint x="201" y="332" as="targetPoint" />
          </mxGeometry>
        </mxCell>
        <mxCell id="Ur9ymTX70aR9tCa4kkiK-220" value="" style="endArrow=none;html=1;rounded=0;fontFamily=Helvetica;fontSize=11;fontColor=default;labelBackgroundColor=default;resizable=0;strokeColor=#3333FF;" edge="1" parent="1">
          <mxGeometry width="50" height="50" relative="1" as="geometry">
            <mxPoint x="83" y="358" as="sourcePoint" />
            <mxPoint x="105" y="358" as="targetPoint" />
          </mxGeometry>
        </mxCell>
        <mxCell id="Ur9ymTX70aR9tCa4kkiK-221" value="" style="endArrow=none;html=1;rounded=0;fontFamily=Helvetica;fontSize=11;fontColor=default;labelBackgroundColor=default;resizable=0;strokeColor=#3333FF;" edge="1" parent="1">
          <mxGeometry width="50" height="50" relative="1" as="geometry">
            <mxPoint x="83" y="355" as="sourcePoint" />
            <mxPoint x="105" y="355" as="targetPoint" />
          </mxGeometry>
        </mxCell>
        <mxCell id="Ur9ymTX70aR9tCa4kkiK-222" value="" style="endArrow=none;html=1;rounded=0;fontFamily=Helvetica;fontSize=11;fontColor=default;labelBackgroundColor=default;resizable=0;strokeColor=#3333FF;" edge="1" parent="1">
          <mxGeometry width="50" height="50" relative="1" as="geometry">
            <mxPoint x="115" y="358" as="sourcePoint" />
            <mxPoint x="137" y="358" as="targetPoint" />
          </mxGeometry>
        </mxCell>
        <mxCell id="Ur9ymTX70aR9tCa4kkiK-223" value="" style="endArrow=none;html=1;rounded=0;fontFamily=Helvetica;fontSize=11;fontColor=default;labelBackgroundColor=default;resizable=0;strokeColor=#3333FF;" edge="1" parent="1">
          <mxGeometry width="50" height="50" relative="1" as="geometry">
            <mxPoint x="115" y="355" as="sourcePoint" />
            <mxPoint x="137" y="355" as="targetPoint" />
          </mxGeometry>
        </mxCell>
        <mxCell id="Ur9ymTX70aR9tCa4kkiK-224" value="" style="endArrow=none;html=1;rounded=0;fontFamily=Helvetica;fontSize=11;fontColor=default;labelBackgroundColor=default;resizable=0;strokeColor=#3333FF;" edge="1" parent="1">
          <mxGeometry width="50" height="50" relative="1" as="geometry">
            <mxPoint x="147" y="358" as="sourcePoint" />
            <mxPoint x="169" y="358" as="targetPoint" />
          </mxGeometry>
        </mxCell>
        <mxCell id="Ur9ymTX70aR9tCa4kkiK-225" value="" style="endArrow=none;html=1;rounded=0;fontFamily=Helvetica;fontSize=11;fontColor=default;labelBackgroundColor=default;resizable=0;strokeColor=#3333FF;" edge="1" parent="1">
          <mxGeometry width="50" height="50" relative="1" as="geometry">
            <mxPoint x="147" y="355" as="sourcePoint" />
            <mxPoint x="169" y="355" as="targetPoint" />
          </mxGeometry>
        </mxCell>
        <mxCell id="Ur9ymTX70aR9tCa4kkiK-226" value="" style="endArrow=none;html=1;rounded=0;fontFamily=Helvetica;fontSize=11;fontColor=default;labelBackgroundColor=default;resizable=0;strokeColor=#3333FF;" edge="1" parent="1">
          <mxGeometry width="50" height="50" relative="1" as="geometry">
            <mxPoint x="179" y="358" as="sourcePoint" />
            <mxPoint x="201" y="358" as="targetPoint" />
          </mxGeometry>
        </mxCell>
        <mxCell id="Ur9ymTX70aR9tCa4kkiK-227" value="" style="endArrow=none;html=1;rounded=0;fontFamily=Helvetica;fontSize=11;fontColor=default;labelBackgroundColor=default;resizable=0;strokeColor=#3333FF;" edge="1" parent="1">
          <mxGeometry width="50" height="50" relative="1" as="geometry">
            <mxPoint x="179" y="355" as="sourcePoint" />
            <mxPoint x="201" y="355" as="targetPoint" />
          </mxGeometry>
        </mxCell>
        <mxCell id="Ur9ymTX70aR9tCa4kkiK-228" value="Control Port" style="fillColor=#9999FF;aspect=fixed;sketch=0;pointerEvents=1;shadow=0;dashed=0;html=1;strokeColor=none;labelPosition=center;verticalLabelPosition=top;outlineConnect=0;verticalAlign=bottom;align=center;shape=mxgraph.openstack.neutron_port;rotation=-90;fontSize=6;fontColor=#9999FF;spacing=15;textDirection=vertical-lr;spacingTop=0;direction=west;" vertex="1" parent="1">
          <mxGeometry x="64" y="126" width="10" height="10" as="geometry" />
        </mxCell>
        <mxCell id="Ur9ymTX70aR9tCa4kkiK-229" value="" style="shape=flexArrow;endArrow=classic;startArrow=classic;html=1;rounded=0;fontFamily=Helvetica;fontSize=11;fontColor=default;labelBackgroundColor=default;resizable=0;width=4.1610738255033555;startSize=2.2738255033557047;endSize=1.8885906040268456;startWidth=4.17548759064907;endWidth=4.17548759064907;fillColor=#CCCCFF;gradientColor=none;strokeColor=#9999FF;" edge="1" parent="1">
          <mxGeometry width="100" height="100" relative="1" as="geometry">
            <mxPoint x="41" y="130.9" as="sourcePoint" />
            <mxPoint x="63" y="130.97" as="targetPoint" />
          </mxGeometry>
        </mxCell>
        <mxCell id="Ur9ymTX70aR9tCa4kkiK-230" value="Outer Data Port" style="fillColor=#009900;aspect=fixed;sketch=0;pointerEvents=1;shadow=0;dashed=0;html=1;strokeColor=none;labelPosition=center;verticalLabelPosition=bottom;outlineConnect=0;verticalAlign=top;align=center;shape=mxgraph.openstack.neutron_port;rotation=-90;textDirection=vertical-lr;fontSize=6;spacing=0;fontColor=#009900;spacingTop=20;" vertex="1" parent="1">
          <mxGeometry x="208" y="327" width="10" height="10" as="geometry" />
        </mxCell>
        <mxCell id="Ur9ymTX70aR9tCa4kkiK-231" value="Inner Data Port" style="fillColor=#808080;aspect=fixed;sketch=0;pointerEvents=1;shadow=0;dashed=0;html=1;strokeColor=none;labelPosition=center;verticalLabelPosition=bottom;outlineConnect=0;verticalAlign=top;align=center;shape=mxgraph.openstack.neutron_port;rotation=-90;textDirection=vertical-lr;fontColor=#999999;fontSize=6;spacing=0;spacingTop=20;" vertex="1" parent="1">
          <mxGeometry x="208" y="354" width="10" height="10" as="geometry" />
        </mxCell>
        <mxCell id="Ur9ymTX70aR9tCa4kkiK-232" value="" style="shape=flexArrow;endArrow=classic;html=1;rounded=0;fillColor=#d5e8d4;gradientColor=#97d077;strokeColor=#82b366;endWidth=4.077293815593892;endSize=2.4201342281879197;width=3.6241610738255035;" edge="1" parent="1">
          <mxGeometry width="50" height="50" relative="1" as="geometry">
            <mxPoint x="219" y="331.93" as="sourcePoint" />
            <mxPoint x="239" y="331.93" as="targetPoint" />
          </mxGeometry>
        </mxCell>
        <mxCell id="Ur9ymTX70aR9tCa4kkiK-233" value="" style="shape=flexArrow;endArrow=classic;html=1;rounded=0;fillColor=#E0E0E0;gradientColor=#999999;strokeColor=#999999;endWidth=4.077293815593892;endSize=2.4201342281879197;width=3.6241610738255035;" edge="1" parent="1">
          <mxGeometry width="50" height="50" relative="1" as="geometry">
            <mxPoint x="219" y="359" as="sourcePoint" />
            <mxPoint x="239" y="359" as="targetPoint" />
          </mxGeometry>
        </mxCell>
        <mxCell id="Ur9ymTX70aR9tCa4kkiK-234" value="Jungfrau" style="text;html=1;align=center;verticalAlign=middle;resizable=0;points=[];autosize=1;strokeColor=none;fillColor=none;" vertex="1" parent="1">
          <mxGeometry x="108" y="23" width="65" height="26" as="geometry" />
        </mxCell>
        <mxCell id="Ur9ymTX70aR9tCa4kkiK-295" value="&lt;font style=&quot;color: rgb(126, 166, 224);&quot;&gt;Single Module&lt;/font&gt;" style="rounded=1;whiteSpace=wrap;html=1;labelPosition=center;verticalLabelPosition=top;align=center;verticalAlign=bottom;fontSize=9;fillColor=#dae8fc;gradientColor=#7ea6e0;strokeColor=#6c8ebf;" vertex="1" parent="1">
          <mxGeometry x="673" y="163" width="69" height="68" as="geometry" />
        </mxCell>
        <mxCell id="Ur9ymTX70aR9tCa4kkiK-297" value="" style="rounded=1;whiteSpace=wrap;html=1;fillColor=#d5e8d4;strokeColor=#82b366;opacity=80;" vertex="1" parent="1">
          <mxGeometry x="677" y="166" width="62" height="62" as="geometry" />
        </mxCell>
        <mxCell id="Ur9ymTX70aR9tCa4kkiK-304" value="Outer Data Port" style="fillColor=#009900;aspect=fixed;sketch=0;pointerEvents=1;shadow=0;dashed=0;html=1;strokeColor=none;labelPosition=center;verticalLabelPosition=bottom;outlineConnect=0;verticalAlign=top;align=center;shape=mxgraph.openstack.neutron_port;rotation=-90;textDirection=vertical-lr;fontSize=6;spacing=0;fontColor=#009900;spacingTop=20;" vertex="1" parent="1">
          <mxGeometry x="742" y="178" width="10" height="10" as="geometry" />
        </mxCell>
        <mxCell id="Ur9ymTX70aR9tCa4kkiK-305" value="Inner Data Port" style="fillColor=#808080;aspect=fixed;sketch=0;pointerEvents=1;shadow=0;dashed=0;html=1;strokeColor=none;labelPosition=center;verticalLabelPosition=bottom;outlineConnect=0;verticalAlign=top;align=center;shape=mxgraph.openstack.neutron_port;rotation=-90;textDirection=vertical-lr;fontColor=#999999;fontSize=6;spacing=0;spacingTop=20;" vertex="1" parent="1">
          <mxGeometry x="742" y="205" width="10" height="10" as="geometry" />
        </mxCell>
        <mxCell id="Ur9ymTX70aR9tCa4kkiK-306" value="" style="shape=flexArrow;endArrow=classic;html=1;rounded=0;fillColor=#d5e8d4;gradientColor=#97d077;strokeColor=#82b366;endWidth=4.077293815593892;endSize=2.4201342281879197;width=3.6241610738255035;" edge="1" parent="1">
          <mxGeometry width="50" height="50" relative="1" as="geometry">
            <mxPoint x="753" y="182.93" as="sourcePoint" />
            <mxPoint x="773" y="182.93" as="targetPoint" />
          </mxGeometry>
        </mxCell>
        <mxCell id="Ur9ymTX70aR9tCa4kkiK-307" value="400 pixels" style="text;strokeColor=none;align=center;fillColor=none;html=1;verticalAlign=middle;whiteSpace=wrap;rounded=0;fontFamily=Helvetica;fontSize=6;fontColor=#999999;labelBackgroundColor=none;resizable=0;" vertex="1" parent="1">
          <mxGeometry x="672" y="205" width="60" height="30" as="geometry" />
        </mxCell>
        <mxCell id="Ur9ymTX70aR9tCa4kkiK-308" value="400 pixels" style="text;strokeColor=none;align=center;fillColor=none;html=1;verticalAlign=middle;whiteSpace=wrap;rounded=0;fontFamily=Helvetica;fontSize=6;fontColor=#999999;labelBackgroundColor=none;resizable=0;rotation=-90;" vertex="1" parent="1">
          <mxGeometry x="653" y="190" width="60" height="30" as="geometry" />
        </mxCell>
        <mxCell id="Ur9ymTX70aR9tCa4kkiK-319" value="" style="shape=flexArrow;endArrow=classic;html=1;rounded=0;fillColor=#E0E0E0;gradientColor=#999999;strokeColor=#999999;endWidth=4.077293815593892;endSize=2.4201342281879197;width=3.6241610738255035;" edge="1" parent="1">
          <mxGeometry width="50" height="50" relative="1" as="geometry">
            <mxPoint x="753" y="210" as="sourcePoint" />
            <mxPoint x="773" y="210" as="targetPoint" />
          </mxGeometry>
        </mxCell>
        <mxCell id="Ur9ymTX70aR9tCa4kkiK-320" value="Outer Data Port" style="fillColor=#009900;aspect=fixed;sketch=0;pointerEvents=1;shadow=0;dashed=0;html=1;strokeColor=none;labelPosition=center;verticalLabelPosition=bottom;outlineConnect=0;verticalAlign=top;align=center;shape=mxgraph.openstack.neutron_port;rotation=-90;textDirection=vertical-lr;fontSize=6;spacing=0;fontColor=#009900;spacingTop=20;" vertex="1" parent="1">
          <mxGeometry x="741" y="285" width="10" height="10" as="geometry" />
        </mxCell>
        <mxCell id="Ur9ymTX70aR9tCa4kkiK-321" value="" style="shape=flexArrow;endArrow=classic;html=1;rounded=0;fillColor=#d5e8d4;gradientColor=#97d077;strokeColor=#82b366;endWidth=4.077293815593892;endSize=2.4201342281879197;width=3.6241610738255035;" edge="1" parent="1">
          <mxGeometry width="50" height="50" relative="1" as="geometry">
            <mxPoint x="753" y="289.93" as="sourcePoint" />
            <mxPoint x="773" y="289.93" as="targetPoint" />
          </mxGeometry>
        </mxCell>
        <mxCell id="Ur9ymTX70aR9tCa4kkiK-322" value="Inner Data Port" style="fillColor=#3399FF;aspect=fixed;sketch=0;pointerEvents=1;shadow=0;dashed=0;html=1;strokeColor=none;labelPosition=center;verticalLabelPosition=bottom;outlineConnect=0;verticalAlign=top;align=center;shape=mxgraph.openstack.neutron_port;rotation=-90;textDirection=vertical-lr;fontSize=6;spacing=0;fontColor=#3399FF;spacingTop=20;" vertex="1" parent="1">
          <mxGeometry x="741" y="316" width="10" height="10" as="geometry" />
        </mxCell>
        <mxCell id="Ur9ymTX70aR9tCa4kkiK-323" value="" style="shape=flexArrow;endArrow=classic;html=1;rounded=0;fillColor=#dae8fc;gradientColor=none;strokeColor=#6c8ebf;endWidth=4.077293815593892;endSize=2.4201342281879197;width=3.6241610738255035;fontColor=#3399FF;" edge="1" parent="1">
          <mxGeometry width="50" height="50" relative="1" as="geometry">
            <mxPoint x="753" y="320.93" as="sourcePoint" />
            <mxPoint x="773" y="320.93" as="targetPoint" />
          </mxGeometry>
        </mxCell>
        <mxCell id="Ur9ymTX70aR9tCa4kkiK-365" value="Control Port" style="fillColor=#9999FF;aspect=fixed;sketch=0;pointerEvents=1;shadow=0;dashed=0;html=1;strokeColor=none;labelPosition=center;verticalLabelPosition=top;outlineConnect=0;verticalAlign=bottom;align=center;shape=mxgraph.openstack.neutron_port;rotation=-90;fontSize=6;fontColor=#9999FF;spacing=15;textDirection=vertical-lr;spacingTop=0;direction=west;" vertex="1" parent="1">
          <mxGeometry x="662" y="190" width="10" height="10" as="geometry" />
        </mxCell>
        <mxCell id="Ur9ymTX70aR9tCa4kkiK-366" value="" style="shape=flexArrow;endArrow=classic;startArrow=classic;html=1;rounded=0;fontFamily=Helvetica;fontSize=11;fontColor=default;labelBackgroundColor=default;resizable=0;width=4.1610738255033555;startSize=2.2738255033557047;endSize=1.8885906040268456;startWidth=4.17548759064907;endWidth=4.17548759064907;fillColor=#CCCCFF;gradientColor=none;strokeColor=#9999FF;" edge="1" parent="1">
          <mxGeometry width="100" height="100" relative="1" as="geometry">
            <mxPoint x="639" y="194.9" as="sourcePoint" />
            <mxPoint x="661" y="194.97" as="targetPoint" />
          </mxGeometry>
        </mxCell>
        <mxCell id="Ur9ymTX70aR9tCa4kkiK-367" value="Outer Data Port" style="fillColor=#009900;aspect=fixed;sketch=0;pointerEvents=1;shadow=0;dashed=0;html=1;strokeColor=none;labelPosition=center;verticalLabelPosition=bottom;outlineConnect=0;verticalAlign=top;align=center;shape=mxgraph.openstack.neutron_port;rotation=-90;textDirection=vertical-lr;fontSize=6;spacing=0;fontColor=#009900;spacingTop=20;" vertex="1" parent="1">
          <mxGeometry x="744" y="391" width="10" height="10" as="geometry" />
        </mxCell>
        <mxCell id="Ur9ymTX70aR9tCa4kkiK-368" value="Inner Data Port" style="fillColor=#808080;aspect=fixed;sketch=0;pointerEvents=1;shadow=0;dashed=0;html=1;strokeColor=none;labelPosition=center;verticalLabelPosition=bottom;outlineConnect=0;verticalAlign=top;align=center;shape=mxgraph.openstack.neutron_port;rotation=-90;textDirection=vertical-lr;fontColor=#999999;fontSize=6;spacing=0;spacingTop=20;" vertex="1" parent="1">
          <mxGeometry x="744" y="418" width="10" height="10" as="geometry" />
        </mxCell>
        <mxCell id="Ur9ymTX70aR9tCa4kkiK-369" value="" style="shape=flexArrow;endArrow=classic;html=1;rounded=0;fillColor=#d5e8d4;gradientColor=#97d077;strokeColor=#82b366;endWidth=4.077293815593892;endSize=2.4201342281879197;width=3.6241610738255035;" edge="1" parent="1">
          <mxGeometry width="50" height="50" relative="1" as="geometry">
            <mxPoint x="755" y="395.93" as="sourcePoint" />
            <mxPoint x="775" y="395.93" as="targetPoint" />
          </mxGeometry>
        </mxCell>
        <mxCell id="Ur9ymTX70aR9tCa4kkiK-370" value="" style="shape=flexArrow;endArrow=classic;html=1;rounded=0;fillColor=#E0E0E0;gradientColor=#999999;strokeColor=#999999;endWidth=4.077293815593892;endSize=2.4201342281879197;width=3.6241610738255035;" edge="1" parent="1">
          <mxGeometry width="50" height="50" relative="1" as="geometry">
            <mxPoint x="755" y="423" as="sourcePoint" />
            <mxPoint x="775" y="423" as="targetPoint" />
          </mxGeometry>
        </mxCell>
        <mxCell id="Ur9ymTX70aR9tCa4kkiK-371" value="Moench" style="text;html=1;align=center;verticalAlign=middle;resizable=0;points=[];autosize=1;strokeColor=none;fillColor=none;" vertex="1" parent="1">
          <mxGeometry x="646" y="87" width="61" height="26" as="geometry" />
        </mxCell>
        <mxCell id="Ur9ymTX70aR9tCa4kkiK-372" value="" style="rounded=1;whiteSpace=wrap;html=1;labelPosition=center;verticalLabelPosition=top;align=center;verticalAlign=bottom;fontSize=9;fillColor=#dae8fc;gradientColor=#7ea6e0;strokeColor=#6c8ebf;" vertex="1" parent="1">
          <mxGeometry x="673" y="272" width="69" height="68" as="geometry" />
        </mxCell>
        <mxCell id="Ur9ymTX70aR9tCa4kkiK-373" value="" style="rounded=1;whiteSpace=wrap;html=1;fillColor=#d5e8d4;strokeColor=#82b366;opacity=80;" vertex="1" parent="1">
          <mxGeometry x="677" y="275" width="62" height="62" as="geometry" />
        </mxCell>
        <mxCell id="Ur9ymTX70aR9tCa4kkiK-378" value="" style="rounded=1;whiteSpace=wrap;html=1;labelPosition=center;verticalLabelPosition=top;align=center;verticalAlign=bottom;fontSize=9;fillColor=#dae8fc;gradientColor=#7ea6e0;strokeColor=#6c8ebf;" vertex="1" parent="1">
          <mxGeometry x="675" y="373" width="69" height="68" as="geometry" />
        </mxCell>
        <mxCell id="Ur9ymTX70aR9tCa4kkiK-379" value="" style="rounded=1;whiteSpace=wrap;html=1;fillColor=#d5e8d4;strokeColor=#82b366;opacity=80;" vertex="1" parent="1">
          <mxGeometry x="679" y="376" width="62" height="62" as="geometry" />
        </mxCell>
        <mxCell id="Ur9ymTX70aR9tCa4kkiK-387" value="" style="endArrow=none;html=1;rounded=0;fontFamily=Helvetica;fontSize=11;fontColor=default;labelBackgroundColor=default;resizable=0;strokeColor=#3333FF;exitX=0.029;exitY=0.164;exitDx=0;exitDy=0;exitPerimeter=0;" edge="1" parent="1">
          <mxGeometry width="50" height="50" relative="1" as="geometry">
            <mxPoint x="680.298" y="385.168" as="sourcePoint" />
            <mxPoint x="739" y="385" as="targetPoint" />
          </mxGeometry>
        </mxCell>
        <mxCell id="Ur9ymTX70aR9tCa4kkiK-391" value="" style="endArrow=none;html=1;rounded=0;fontFamily=Helvetica;fontSize=11;fontColor=default;labelBackgroundColor=default;resizable=0;strokeColor=#3333FF;exitX=0.029;exitY=0.164;exitDx=0;exitDy=0;exitPerimeter=0;" edge="1" parent="1">
          <mxGeometry width="50" height="50" relative="1" as="geometry">
            <mxPoint x="680.15" y="388.168" as="sourcePoint" />
            <mxPoint x="738.852" y="388" as="targetPoint" />
          </mxGeometry>
        </mxCell>
        <mxCell id="Ur9ymTX70aR9tCa4kkiK-392" value="" style="endArrow=none;html=1;rounded=0;fontFamily=Helvetica;fontSize=11;fontColor=default;labelBackgroundColor=default;resizable=0;strokeColor=#3333FF;exitX=0.029;exitY=0.164;exitDx=0;exitDy=0;exitPerimeter=0;" edge="1" parent="1">
          <mxGeometry width="50" height="50" relative="1" as="geometry">
            <mxPoint x="680.298" y="391.168" as="sourcePoint" />
            <mxPoint x="739" y="391" as="targetPoint" />
          </mxGeometry>
        </mxCell>
        <mxCell id="Ur9ymTX70aR9tCa4kkiK-393" value="" style="endArrow=none;html=1;rounded=0;fontFamily=Helvetica;fontSize=11;fontColor=default;labelBackgroundColor=default;resizable=0;strokeColor=#3333FF;exitX=0.029;exitY=0.164;exitDx=0;exitDy=0;exitPerimeter=0;" edge="1" parent="1">
          <mxGeometry width="50" height="50" relative="1" as="geometry">
            <mxPoint x="680.15" y="394.168" as="sourcePoint" />
            <mxPoint x="738.852" y="394" as="targetPoint" />
          </mxGeometry>
        </mxCell>
        <mxCell id="Ur9ymTX70aR9tCa4kkiK-394" value="" style="endArrow=none;html=1;rounded=0;fontFamily=Helvetica;fontSize=11;fontColor=default;labelBackgroundColor=default;resizable=0;strokeColor=#3333FF;exitX=0.029;exitY=0.164;exitDx=0;exitDy=0;exitPerimeter=0;" edge="1" parent="1">
          <mxGeometry width="50" height="50" relative="1" as="geometry">
            <mxPoint x="680.148" y="397.168" as="sourcePoint" />
            <mxPoint x="738.85" y="397" as="targetPoint" />
          </mxGeometry>
        </mxCell>
        <mxCell id="Ur9ymTX70aR9tCa4kkiK-395" value="" style="endArrow=none;html=1;rounded=0;fontFamily=Helvetica;fontSize=11;fontColor=default;labelBackgroundColor=default;resizable=0;strokeColor=#3333FF;exitX=0.029;exitY=0.164;exitDx=0;exitDy=0;exitPerimeter=0;" edge="1" parent="1">
          <mxGeometry width="50" height="50" relative="1" as="geometry">
            <mxPoint x="680" y="400.168" as="sourcePoint" />
            <mxPoint x="738.702" y="400" as="targetPoint" />
          </mxGeometry>
        </mxCell>
        <mxCell id="Ur9ymTX70aR9tCa4kkiK-396" value="" style="endArrow=none;html=1;rounded=0;fontFamily=Helvetica;fontSize=11;fontColor=default;labelBackgroundColor=default;resizable=0;strokeColor=#3333FF;exitX=0.029;exitY=0.164;exitDx=0;exitDy=0;exitPerimeter=0;" edge="1" parent="1">
          <mxGeometry width="50" height="50" relative="1" as="geometry">
            <mxPoint x="680.148" y="403.168" as="sourcePoint" />
            <mxPoint x="738.85" y="403" as="targetPoint" />
          </mxGeometry>
        </mxCell>
        <mxCell id="Ur9ymTX70aR9tCa4kkiK-397" value="" style="endArrow=none;html=1;rounded=0;fontFamily=Helvetica;fontSize=11;fontColor=default;labelBackgroundColor=default;resizable=0;strokeColor=#3333FF;exitX=0.029;exitY=0.164;exitDx=0;exitDy=0;exitPerimeter=0;" edge="1" parent="1">
          <mxGeometry width="50" height="50" relative="1" as="geometry">
            <mxPoint x="680" y="406.168" as="sourcePoint" />
            <mxPoint x="738.702" y="406" as="targetPoint" />
          </mxGeometry>
        </mxCell>
        <mxCell id="Ur9ymTX70aR9tCa4kkiK-398" value="" style="endArrow=none;html=1;rounded=0;fontFamily=Helvetica;fontSize=11;fontColor=default;labelBackgroundColor=default;resizable=0;strokeColor=#3333FF;exitX=0.029;exitY=0.164;exitDx=0;exitDy=0;exitPerimeter=0;" edge="1" parent="1">
          <mxGeometry width="50" height="50" relative="1" as="geometry">
            <mxPoint x="680.298" y="409.168" as="sourcePoint" />
            <mxPoint x="739" y="409" as="targetPoint" />
          </mxGeometry>
        </mxCell>
        <mxCell id="Ur9ymTX70aR9tCa4kkiK-399" value="" style="endArrow=none;html=1;rounded=0;fontFamily=Helvetica;fontSize=11;fontColor=default;labelBackgroundColor=default;resizable=0;strokeColor=#3333FF;exitX=0.029;exitY=0.164;exitDx=0;exitDy=0;exitPerimeter=0;" edge="1" parent="1">
          <mxGeometry width="50" height="50" relative="1" as="geometry">
            <mxPoint x="680.15" y="412.168" as="sourcePoint" />
            <mxPoint x="738.852" y="412" as="targetPoint" />
          </mxGeometry>
        </mxCell>
        <mxCell id="Ur9ymTX70aR9tCa4kkiK-400" value="" style="endArrow=none;html=1;rounded=0;fontFamily=Helvetica;fontSize=11;fontColor=default;labelBackgroundColor=default;resizable=0;strokeColor=#3333FF;exitX=0.029;exitY=0.164;exitDx=0;exitDy=0;exitPerimeter=0;" edge="1" parent="1">
          <mxGeometry width="50" height="50" relative="1" as="geometry">
            <mxPoint x="680.298" y="415.168" as="sourcePoint" />
            <mxPoint x="739" y="415" as="targetPoint" />
          </mxGeometry>
        </mxCell>
        <mxCell id="Ur9ymTX70aR9tCa4kkiK-401" value="" style="endArrow=none;html=1;rounded=0;fontFamily=Helvetica;fontSize=11;fontColor=default;labelBackgroundColor=default;resizable=0;strokeColor=#3333FF;exitX=0.029;exitY=0.164;exitDx=0;exitDy=0;exitPerimeter=0;" edge="1" parent="1">
          <mxGeometry width="50" height="50" relative="1" as="geometry">
            <mxPoint x="680.15" y="418.168" as="sourcePoint" />
            <mxPoint x="738.852" y="418" as="targetPoint" />
          </mxGeometry>
        </mxCell>
        <mxCell id="Ur9ymTX70aR9tCa4kkiK-402" value="" style="endArrow=none;html=1;rounded=0;fontFamily=Helvetica;fontSize=11;fontColor=default;labelBackgroundColor=default;resizable=0;strokeColor=#3333FF;exitX=0.029;exitY=0.164;exitDx=0;exitDy=0;exitPerimeter=0;" edge="1" parent="1">
          <mxGeometry width="50" height="50" relative="1" as="geometry">
            <mxPoint x="680.148" y="421.168" as="sourcePoint" />
            <mxPoint x="738.85" y="421" as="targetPoint" />
          </mxGeometry>
        </mxCell>
        <mxCell id="Ur9ymTX70aR9tCa4kkiK-403" value="" style="endArrow=none;html=1;rounded=0;fontFamily=Helvetica;fontSize=11;fontColor=default;labelBackgroundColor=default;resizable=0;strokeColor=#3333FF;exitX=0.029;exitY=0.164;exitDx=0;exitDy=0;exitPerimeter=0;" edge="1" parent="1">
          <mxGeometry width="50" height="50" relative="1" as="geometry">
            <mxPoint x="680" y="424.168" as="sourcePoint" />
            <mxPoint x="738.702" y="424" as="targetPoint" />
          </mxGeometry>
        </mxCell>
        <mxCell id="Ur9ymTX70aR9tCa4kkiK-404" value="" style="endArrow=none;html=1;rounded=0;fontFamily=Helvetica;fontSize=11;fontColor=default;labelBackgroundColor=default;resizable=0;strokeColor=#3333FF;exitX=0.029;exitY=0.164;exitDx=0;exitDy=0;exitPerimeter=0;" edge="1" parent="1">
          <mxGeometry width="50" height="50" relative="1" as="geometry">
            <mxPoint x="680.148" y="427.168" as="sourcePoint" />
            <mxPoint x="738.85" y="427" as="targetPoint" />
          </mxGeometry>
        </mxCell>
        <mxCell id="Ur9ymTX70aR9tCa4kkiK-405" value="" style="endArrow=none;html=1;rounded=0;fontFamily=Helvetica;fontSize=11;fontColor=default;labelBackgroundColor=default;resizable=0;strokeColor=#3333FF;exitX=0.029;exitY=0.164;exitDx=0;exitDy=0;exitPerimeter=0;" edge="1" parent="1">
          <mxGeometry width="50" height="50" relative="1" as="geometry">
            <mxPoint x="680" y="430.168" as="sourcePoint" />
            <mxPoint x="738.702" y="430" as="targetPoint" />
          </mxGeometry>
        </mxCell>
        <mxCell id="Ur9ymTX70aR9tCa4kkiK-483" value="&lt;font style=&quot;color: rgb(126, 166, 224);&quot;&gt;Single Module&lt;/font&gt;" style="rounded=1;whiteSpace=wrap;html=1;labelPosition=center;verticalLabelPosition=top;align=center;verticalAlign=bottom;fontSize=9;fillColor=#dae8fc;gradientColor=#7ea6e0;strokeColor=#6c8ebf;" vertex="1" parent="1">
          <mxGeometry x="208.25" y="916" width="370" height="26" as="geometry" />
        </mxCell>
        <mxCell id="Ur9ymTX70aR9tCa4kkiK-484" value="" style="rounded=1;whiteSpace=wrap;html=1;fillColor=#d5e8d4;strokeColor=#82b366;opacity=80;spacingTop=0;" vertex="1" parent="1">
          <mxGeometry x="210.25" y="919" width="35" height="20" as="geometry" />
        </mxCell>
        <mxCell id="Ur9ymTX70aR9tCa4kkiK-485" value="Data Port" style="fillColor=#009900;aspect=fixed;sketch=0;pointerEvents=1;shadow=0;dashed=0;html=1;strokeColor=none;labelPosition=right;verticalLabelPosition=middle;outlineConnect=0;verticalAlign=middle;align=left;shape=mxgraph.openstack.neutron_port;rotation=-90;textDirection=vertical-lr;fontSize=8;spacing=12;fontColor=#009900;spacingTop=0;direction=north;" vertex="1" parent="1">
          <mxGeometry x="270.75" y="905" width="11" height="11" as="geometry" />
        </mxCell>
        <mxCell id="Ur9ymTX70aR9tCa4kkiK-486" value="" style="shape=flexArrow;endArrow=classic;html=1;rounded=0;fillColor=#d5e8d4;gradientColor=#97d077;strokeColor=#82b366;endWidth=4.077293815593892;endSize=2.4201342281879197;width=3.6241610738255035;labelPosition=right;verticalLabelPosition=middle;align=left;verticalAlign=middle;spacing=12;" edge="1" parent="1">
          <mxGeometry width="50" height="50" relative="1" as="geometry">
            <mxPoint x="286.75" y="898.9300000000001" as="sourcePoint" />
            <mxPoint x="266.75" y="898.9300000000001" as="targetPoint" />
          </mxGeometry>
        </mxCell>
        <mxCell id="Ur9ymTX70aR9tCa4kkiK-487" value="Control Port" style="fillColor=#9999FF;aspect=fixed;sketch=0;pointerEvents=1;shadow=0;dashed=0;html=1;strokeColor=none;labelPosition=right;verticalLabelPosition=middle;outlineConnect=0;verticalAlign=middle;align=left;shape=mxgraph.openstack.neutron_port;rotation=-90;fontSize=8;fontColor=#9999FF;spacing=12;textDirection=vertical-lr;spacingTop=0;direction=north;" vertex="1" parent="1">
          <mxGeometry x="227.25" y="905" width="11" height="11" as="geometry" />
        </mxCell>
        <mxCell id="Ur9ymTX70aR9tCa4kkiK-488" value="" style="shape=flexArrow;endArrow=classic;startArrow=classic;html=1;rounded=0;fontFamily=Helvetica;fontSize=11;fontColor=default;labelBackgroundColor=default;resizable=0;width=4.1610738255033555;startSize=2.2738255033557047;endSize=1.8885906040268456;startWidth=4.17548759064907;endWidth=4.17548759064907;fillColor=#CCCCFF;gradientColor=none;strokeColor=#9999FF;labelPosition=right;verticalLabelPosition=middle;align=left;verticalAlign=middle;spacing=12;" edge="1" parent="1">
          <mxGeometry width="100" height="100" relative="1" as="geometry">
            <mxPoint x="221.25" y="899.9000000000001" as="sourcePoint" />
            <mxPoint x="243.25" y="899.97" as="targetPoint" />
          </mxGeometry>
        </mxCell>
        <mxCell id="Ur9ymTX70aR9tCa4kkiK-489" value="Mythen3" style="text;html=1;align=center;verticalAlign=middle;resizable=0;points=[];autosize=1;strokeColor=none;fillColor=none;" vertex="1" parent="1">
          <mxGeometry x="318.75" y="857" width="64" height="26" as="geometry" />
        </mxCell>
        <mxCell id="Ur9ymTX70aR9tCa4kkiK-490" value="&lt;font color=&quot;#999999&quot;&gt;2&lt;/font&gt;" style="rounded=1;whiteSpace=wrap;html=1;fillColor=#d5e8d4;strokeColor=#82b366;opacity=80;" vertex="1" parent="1">
          <mxGeometry x="246.75" y="919" width="35" height="20" as="geometry" />
        </mxCell>
        <mxCell id="Ur9ymTX70aR9tCa4kkiK-491" value="&lt;font style=&quot;color: rgb(153, 153, 153);&quot;&gt;3&lt;/font&gt;" style="rounded=1;whiteSpace=wrap;html=1;fillColor=#d5e8d4;strokeColor=#82b366;opacity=80;" vertex="1" parent="1">
          <mxGeometry x="283.75" y="919" width="35" height="20" as="geometry" />
        </mxCell>
        <mxCell id="Ur9ymTX70aR9tCa4kkiK-492" value="&lt;font style=&quot;color: rgb(153, 153, 153);&quot;&gt;4&lt;/font&gt;" style="rounded=1;whiteSpace=wrap;html=1;fillColor=#d5e8d4;strokeColor=#82b366;opacity=80;" vertex="1" parent="1">
          <mxGeometry x="320.25" y="919" width="35" height="20" as="geometry" />
        </mxCell>
        <mxCell id="Ur9ymTX70aR9tCa4kkiK-493" value="&lt;font style=&quot;color: rgb(153, 153, 153);&quot;&gt;5&lt;/font&gt;" style="rounded=1;whiteSpace=wrap;html=1;fillColor=#d5e8d4;strokeColor=#82b366;opacity=80;" vertex="1" parent="1">
          <mxGeometry x="357.25" y="919" width="35" height="20" as="geometry" />
        </mxCell>
        <mxCell id="Ur9ymTX70aR9tCa4kkiK-494" value="&lt;font style=&quot;color: rgb(153, 153, 153);&quot;&gt;6&lt;/font&gt;" style="rounded=1;whiteSpace=wrap;html=1;fillColor=#d5e8d4;strokeColor=#82b366;opacity=80;" vertex="1" parent="1">
          <mxGeometry x="393.75" y="919" width="35" height="20" as="geometry" />
        </mxCell>
        <mxCell id="Ur9ymTX70aR9tCa4kkiK-495" value="&lt;font style=&quot;color: rgb(153, 153, 153);&quot;&gt;7&lt;/font&gt;" style="rounded=1;whiteSpace=wrap;html=1;fillColor=#d5e8d4;strokeColor=#82b366;opacity=80;" vertex="1" parent="1">
          <mxGeometry x="430.75" y="919" width="35" height="20" as="geometry" />
        </mxCell>
        <mxCell id="Ur9ymTX70aR9tCa4kkiK-496" value="&lt;font style=&quot;color: rgb(153, 153, 153);&quot;&gt;8&lt;/font&gt;" style="rounded=1;whiteSpace=wrap;html=1;fillColor=#d5e8d4;strokeColor=#82b366;opacity=80;" vertex="1" parent="1">
          <mxGeometry x="467.25" y="919" width="35" height="20" as="geometry" />
        </mxCell>
        <mxCell id="Ur9ymTX70aR9tCa4kkiK-497" value="&lt;font style=&quot;color: rgb(153, 153, 153);&quot;&gt;9&lt;/font&gt;" style="rounded=1;whiteSpace=wrap;html=1;fillColor=#d5e8d4;strokeColor=#82b366;opacity=80;" vertex="1" parent="1">
          <mxGeometry x="504.25" y="919" width="35" height="20" as="geometry" />
        </mxCell>
        <mxCell id="Ur9ymTX70aR9tCa4kkiK-498" value="&lt;font style=&quot;color: rgb(153, 153, 153);&quot;&gt;10&lt;/font&gt;" style="rounded=1;whiteSpace=wrap;html=1;fillColor=#d5e8d4;strokeColor=#82b366;opacity=80;" vertex="1" parent="1">
          <mxGeometry x="540.75" y="919" width="35" height="20" as="geometry" />
        </mxCell>
        <mxCell id="Ur9ymTX70aR9tCa4kkiK-499" value="&lt;font style=&quot;color: rgb(130, 179, 102);&quot;&gt;10 Chips&lt;/font&gt;" style="text;strokeColor=none;align=center;fillColor=none;html=1;verticalAlign=middle;whiteSpace=wrap;rounded=0;fontFamily=Helvetica;fontSize=8;fontColor=#999999;labelBackgroundColor=none;resizable=0;" vertex="1" parent="1">
          <mxGeometry x="363.25" y="934" width="60" height="30" as="geometry" />
        </mxCell>
        <mxCell id="Ur9ymTX70aR9tCa4kkiK-500" value="128 channels&lt;div&gt;x&lt;/div&gt;&lt;div&gt;3 counters&lt;/div&gt;" style="text;strokeColor=none;align=center;fillColor=none;html=1;verticalAlign=middle;whiteSpace=wrap;rounded=0;fontFamily=Helvetica;fontSize=5;fontColor=#717171;labelBackgroundColor=none;resizable=1;movable=1;rotatable=1;deletable=1;editable=1;locked=0;connectable=1;" vertex="1" parent="1">
          <mxGeometry x="208" y="921" width="37.25" height="16" as="geometry" />
        </mxCell>
        <mxCell id="Ur9ymTX70aR9tCa4kkiK-501" value="&lt;font style=&quot;color: rgb(126, 166, 224);&quot;&gt;Single Module&lt;/font&gt;" style="rounded=1;whiteSpace=wrap;html=1;labelPosition=center;verticalLabelPosition=top;align=center;verticalAlign=bottom;fontSize=9;fillColor=#dae8fc;gradientColor=#7ea6e0;strokeColor=#6c8ebf;" vertex="1" parent="1">
          <mxGeometry x="186.5" y="1039" width="370" height="26" as="geometry" />
        </mxCell>
        <mxCell id="Ur9ymTX70aR9tCa4kkiK-502" value="Data Port" style="fillColor=#009900;aspect=fixed;sketch=0;pointerEvents=1;shadow=0;dashed=0;html=1;strokeColor=none;labelPosition=right;verticalLabelPosition=middle;outlineConnect=0;verticalAlign=middle;align=left;shape=mxgraph.openstack.neutron_port;rotation=-90;textDirection=vertical-lr;fontSize=8;spacing=12;fontColor=#009900;spacingTop=0;direction=north;" vertex="1" parent="1">
          <mxGeometry x="247" y="1028" width="11" height="11" as="geometry" />
        </mxCell>
        <mxCell id="Ur9ymTX70aR9tCa4kkiK-503" value="" style="shape=flexArrow;endArrow=classic;html=1;rounded=0;fillColor=#d5e8d4;gradientColor=#97d077;strokeColor=#82b366;endWidth=4.077293815593892;endSize=2.4201342281879197;width=3.6241610738255035;labelPosition=right;verticalLabelPosition=middle;align=left;verticalAlign=middle;spacing=12;" edge="1" parent="1">
          <mxGeometry width="50" height="50" relative="1" as="geometry">
            <mxPoint x="263" y="1021.9300000000001" as="sourcePoint" />
            <mxPoint x="243" y="1021.9300000000001" as="targetPoint" />
          </mxGeometry>
        </mxCell>
        <mxCell id="Ur9ymTX70aR9tCa4kkiK-504" value="Control Port" style="fillColor=#9999FF;aspect=fixed;sketch=0;pointerEvents=1;shadow=0;dashed=0;html=1;strokeColor=none;labelPosition=right;verticalLabelPosition=middle;outlineConnect=0;verticalAlign=middle;align=left;shape=mxgraph.openstack.neutron_port;rotation=-90;fontSize=8;fontColor=#9999FF;spacing=12;textDirection=vertical-lr;spacingTop=0;direction=north;" vertex="1" parent="1">
          <mxGeometry x="203.5" y="1028" width="11" height="11" as="geometry" />
        </mxCell>
        <mxCell id="Ur9ymTX70aR9tCa4kkiK-505" value="" style="shape=flexArrow;endArrow=classic;startArrow=classic;html=1;rounded=0;fontFamily=Helvetica;fontSize=11;fontColor=default;labelBackgroundColor=default;resizable=0;width=4.1610738255033555;startSize=2.2738255033557047;endSize=1.8885906040268456;startWidth=4.17548759064907;endWidth=4.17548759064907;fillColor=#CCCCFF;gradientColor=none;strokeColor=#9999FF;labelPosition=right;verticalLabelPosition=middle;align=left;verticalAlign=middle;spacing=12;" edge="1" parent="1">
          <mxGeometry width="100" height="100" relative="1" as="geometry">
            <mxPoint x="197.5" y="1022.9000000000001" as="sourcePoint" />
            <mxPoint x="219.5" y="1022.97" as="targetPoint" />
          </mxGeometry>
        </mxCell>
        <mxCell id="Ur9ymTX70aR9tCa4kkiK-506" value="Gotthard2" style="text;html=1;align=center;verticalAlign=middle;resizable=0;points=[];autosize=1;strokeColor=none;fillColor=none;" vertex="1" parent="1">
          <mxGeometry x="290.5" y="962" width="71" height="26" as="geometry" />
        </mxCell>
        <mxCell id="Ur9ymTX70aR9tCa4kkiK-507" value="&lt;font color=&quot;#999999&quot;&gt;2&lt;/font&gt;" style="rounded=1;whiteSpace=wrap;html=1;fillColor=#d5e8d4;strokeColor=#82b366;opacity=80;" vertex="1" parent="1">
          <mxGeometry x="225" y="1042" width="35" height="20" as="geometry" />
        </mxCell>
        <mxCell id="Ur9ymTX70aR9tCa4kkiK-508" value="&lt;font style=&quot;color: rgb(153, 153, 153);&quot;&gt;3&lt;/font&gt;" style="rounded=1;whiteSpace=wrap;html=1;fillColor=#d5e8d4;strokeColor=#82b366;opacity=80;" vertex="1" parent="1">
          <mxGeometry x="262" y="1042" width="35" height="20" as="geometry" />
        </mxCell>
        <mxCell id="Ur9ymTX70aR9tCa4kkiK-509" value="&lt;font style=&quot;color: rgb(153, 153, 153);&quot;&gt;4&lt;/font&gt;" style="rounded=1;whiteSpace=wrap;html=1;fillColor=#d5e8d4;strokeColor=#82b366;opacity=80;" vertex="1" parent="1">
          <mxGeometry x="298.5" y="1042" width="35" height="20" as="geometry" />
        </mxCell>
        <mxCell id="Ur9ymTX70aR9tCa4kkiK-510" value="&lt;font style=&quot;color: rgb(153, 153, 153);&quot;&gt;5&lt;/font&gt;" style="rounded=1;whiteSpace=wrap;html=1;fillColor=#d5e8d4;strokeColor=#82b366;opacity=80;" vertex="1" parent="1">
          <mxGeometry x="335.5" y="1042" width="35" height="20" as="geometry" />
        </mxCell>
        <mxCell id="Ur9ymTX70aR9tCa4kkiK-511" value="&lt;font style=&quot;color: rgb(153, 153, 153);&quot;&gt;6&lt;/font&gt;" style="rounded=1;whiteSpace=wrap;html=1;fillColor=#d5e8d4;strokeColor=#82b366;opacity=80;" vertex="1" parent="1">
          <mxGeometry x="372" y="1042" width="35" height="20" as="geometry" />
        </mxCell>
        <mxCell id="Ur9ymTX70aR9tCa4kkiK-512" value="&lt;font style=&quot;color: rgb(153, 153, 153);&quot;&gt;7&lt;/font&gt;" style="rounded=1;whiteSpace=wrap;html=1;fillColor=#d5e8d4;strokeColor=#82b366;opacity=80;" vertex="1" parent="1">
          <mxGeometry x="409" y="1042" width="35" height="20" as="geometry" />
        </mxCell>
        <mxCell id="Ur9ymTX70aR9tCa4kkiK-513" value="&lt;font style=&quot;color: rgb(153, 153, 153);&quot;&gt;8&lt;/font&gt;" style="rounded=1;whiteSpace=wrap;html=1;fillColor=#d5e8d4;strokeColor=#82b366;opacity=80;" vertex="1" parent="1">
          <mxGeometry x="445.5" y="1042" width="35" height="20" as="geometry" />
        </mxCell>
        <mxCell id="Ur9ymTX70aR9tCa4kkiK-514" value="&lt;font style=&quot;color: rgb(153, 153, 153);&quot;&gt;9&lt;/font&gt;" style="rounded=1;whiteSpace=wrap;html=1;fillColor=#d5e8d4;strokeColor=#82b366;opacity=80;" vertex="1" parent="1">
          <mxGeometry x="482.5" y="1042" width="35" height="20" as="geometry" />
        </mxCell>
        <mxCell id="Ur9ymTX70aR9tCa4kkiK-515" value="&lt;font style=&quot;color: rgb(153, 153, 153);&quot;&gt;10&lt;/font&gt;" style="rounded=1;whiteSpace=wrap;html=1;fillColor=#d5e8d4;strokeColor=#82b366;opacity=80;" vertex="1" parent="1">
          <mxGeometry x="519" y="1042" width="35" height="20" as="geometry" />
        </mxCell>
        <mxCell id="Ur9ymTX70aR9tCa4kkiK-516" value="&lt;font style=&quot;color: rgb(130, 179, 102);&quot;&gt;10 Chips&lt;/font&gt;" style="text;strokeColor=none;align=center;fillColor=none;html=1;verticalAlign=middle;whiteSpace=wrap;rounded=0;fontFamily=Helvetica;fontSize=8;fontColor=#999999;labelBackgroundColor=none;resizable=0;" vertex="1" parent="1">
          <mxGeometry x="341.5" y="1058" width="60" height="30" as="geometry" />
        </mxCell>
        <mxCell id="Ur9ymTX70aR9tCa4kkiK-517" value="Veto Data Port" style="fillColor=#3399FF;aspect=fixed;sketch=0;pointerEvents=1;shadow=0;dashed=0;html=1;strokeColor=none;labelPosition=right;verticalLabelPosition=middle;outlineConnect=0;verticalAlign=middle;align=left;shape=mxgraph.openstack.neutron_port;rotation=-90;textDirection=vertical-lr;fontSize=8;spacing=12;fontColor=#3399FF;spacingTop=0;direction=north;" vertex="1" parent="1">
          <mxGeometry x="294.25" y="1028" width="11" height="11" as="geometry" />
        </mxCell>
        <mxCell id="Ur9ymTX70aR9tCa4kkiK-518" value="" style="shape=flexArrow;endArrow=classic;html=1;rounded=0;fillColor=#dae8fc;gradientColor=none;strokeColor=#6c8ebf;endWidth=4.077293815593892;endSize=2.4201342281879197;width=3.6241610738255035;fontColor=#3399FF;" edge="1" parent="1">
          <mxGeometry width="50" height="50" relative="1" as="geometry">
            <mxPoint x="307.25" y="1022" as="sourcePoint" />
            <mxPoint x="287.25" y="1022" as="targetPoint" />
          </mxGeometry>
        </mxCell>
        <mxCell id="Ur9ymTX70aR9tCa4kkiK-519" value="&lt;font color=&quot;#999999&quot;&gt;1&lt;/font&gt;" style="rounded=1;whiteSpace=wrap;html=1;fillColor=#d5e8d4;strokeColor=#82b366;opacity=80;" vertex="1" parent="1">
          <mxGeometry x="188.25" y="1042" width="35" height="20" as="geometry" />
        </mxCell>
        <mxCell id="Ur9ymTX70aR9tCa4kkiK-520" value="128 channels" style="text;strokeColor=none;align=center;fillColor=none;html=1;verticalAlign=middle;whiteSpace=wrap;rounded=0;fontFamily=Helvetica;fontSize=5;fontColor=#999999;labelBackgroundColor=none;resizable=0;" vertex="1" parent="1">
          <mxGeometry x="175" y="1043" width="60" height="30" as="geometry" />
        </mxCell>
        <mxCell id="Ur9ymTX70aR9tCa4kkiK-522" value="" style="group" connectable="0" vertex="1" parent="1">
          <mxGeometry x="327" y="548.43" width="151" height="95" as="geometry" />
        </mxCell>
        <mxCell id="Ur9ymTX70aR9tCa4kkiK-523" value="&lt;font style=&quot;color: rgb(126, 166, 224);&quot;&gt;Quad (Top Half Module)&lt;/font&gt;" style="rounded=1;whiteSpace=wrap;html=1;labelPosition=center;verticalLabelPosition=bottom;align=center;verticalAlign=top;fontSize=9;fillColor=#dae8fc;gradientColor=#7ea6e0;strokeColor=#6c8ebf;spacing=0;" vertex="1" parent="Ur9ymTX70aR9tCa4kkiK-522">
          <mxGeometry x="15" y="11" width="69" height="70" as="geometry" />
        </mxCell>
        <mxCell id="Ur9ymTX70aR9tCa4kkiK-524" value="&lt;font style=&quot;color: rgb(153, 153, 153);&quot;&gt;1&lt;/font&gt;" style="rounded=1;whiteSpace=wrap;html=1;fillColor=#d5e8d4;strokeColor=#82b366;opacity=80;" vertex="1" parent="Ur9ymTX70aR9tCa4kkiK-522">
          <mxGeometry x="19" y="15" width="30" height="30" as="geometry" />
        </mxCell>
        <mxCell id="Ur9ymTX70aR9tCa4kkiK-525" value="&lt;font style=&quot;color: rgb(153, 153, 153);&quot;&gt;2&lt;/font&gt;" style="rounded=1;whiteSpace=wrap;html=1;fillColor=#d5e8d4;strokeColor=#82b366;opacity=80;" vertex="1" parent="Ur9ymTX70aR9tCa4kkiK-522">
          <mxGeometry x="51" y="15" width="30" height="30" as="geometry" />
        </mxCell>
        <mxCell id="Ur9ymTX70aR9tCa4kkiK-526" value="UDP Port 1" style="fillColor=#82B366;aspect=fixed;sketch=0;pointerEvents=1;shadow=0;dashed=0;html=1;strokeColor=none;labelPosition=right;verticalLabelPosition=middle;outlineConnect=0;verticalAlign=middle;align=left;shape=mxgraph.openstack.neutron_port;rotation=-90;textDirection=vertical-lr;fontSize=6;spacing=12;fontColor=#82B366;direction=west;spacingTop=-18;" vertex="1" parent="Ur9ymTX70aR9tCa4kkiK-522">
          <mxGeometry x="4" y="34" width="10" height="10" as="geometry" />
        </mxCell>
        <mxCell id="Ur9ymTX70aR9tCa4kkiK-527" value="" style="shape=flexArrow;endArrow=classic;html=1;rounded=0;fillColor=#d5e8d4;gradientColor=#97d077;strokeColor=#82b366;endWidth=4.077293815593892;endSize=2.4201342281879197;width=3.6241610738255035;" edge="1" parent="Ur9ymTX70aR9tCa4kkiK-522">
          <mxGeometry width="50" height="50" relative="1" as="geometry">
            <mxPoint x="15" y="27.930000000000007" as="sourcePoint" />
            <mxPoint x="-5" y="27.930000000000007" as="targetPoint" />
          </mxGeometry>
        </mxCell>
        <mxCell id="Ur9ymTX70aR9tCa4kkiK-528" value="256 pixels" style="text;strokeColor=none;align=center;fillColor=none;html=1;verticalAlign=middle;whiteSpace=wrap;rounded=0;fontFamily=Helvetica;fontSize=4;fontColor=#999999;labelBackgroundColor=none;resizable=0;" vertex="1" parent="Ur9ymTX70aR9tCa4kkiK-522">
          <mxGeometry x="5" y="3" width="60" height="30" as="geometry" />
        </mxCell>
        <mxCell id="Ur9ymTX70aR9tCa4kkiK-533" value="Control Port" style="fillColor=#9999FF;aspect=fixed;sketch=0;pointerEvents=1;shadow=0;dashed=0;html=1;strokeColor=none;labelPosition=right;verticalLabelPosition=middle;outlineConnect=0;verticalAlign=middle;align=left;shape=mxgraph.openstack.neutron_port;rotation=-90;fontSize=6;fontColor=#9999FF;spacing=11;textDirection=vertical-lr;spacingTop=7;direction=north;" vertex="1" parent="Ur9ymTX70aR9tCa4kkiK-522">
          <mxGeometry x="23" y="1" width="10" height="10" as="geometry" />
        </mxCell>
        <mxCell id="Ur9ymTX70aR9tCa4kkiK-534" value="" style="shape=flexArrow;endArrow=classic;startArrow=classic;html=1;rounded=0;fontFamily=Helvetica;fontSize=11;fontColor=default;labelBackgroundColor=default;resizable=0;width=4.1610738255033555;startSize=2.2738255033557047;endSize=1.8885906040268456;startWidth=4.17548759064907;endWidth=4.17548759064907;fillColor=#CCCCFF;gradientColor=none;strokeColor=#9999FF;" edge="1" parent="Ur9ymTX70aR9tCa4kkiK-522">
          <mxGeometry width="100" height="100" relative="1" as="geometry">
            <mxPoint x="16" y="-5.1699999999999875" as="sourcePoint" />
            <mxPoint x="38" y="-5.099999999999994" as="targetPoint" />
          </mxGeometry>
        </mxCell>
        <mxCell id="Ur9ymTX70aR9tCa4kkiK-542" value="" style="rounded=1;whiteSpace=wrap;html=1;fillColor=#dae8fc;strokeColor=#6c8ebf;opacity=80;gradientColor=none;" vertex="1" parent="Ur9ymTX70aR9tCa4kkiK-522">
          <mxGeometry x="18" y="48" width="30" height="30" as="geometry" />
        </mxCell>
        <mxCell id="Ur9ymTX70aR9tCa4kkiK-543" value="" style="rounded=1;whiteSpace=wrap;html=1;fillColor=#dae8fc;strokeColor=#6c8ebf;opacity=80;gradientColor=none;textDirection=ltr;direction=west;" vertex="1" parent="Ur9ymTX70aR9tCa4kkiK-522">
          <mxGeometry x="50" y="48" width="30" height="30" as="geometry" />
        </mxCell>
        <mxCell id="Ur9ymTX70aR9tCa4kkiK-549" value="&lt;font style=&quot;color: rgb(153, 153, 153);&quot;&gt;4&lt;/font&gt;" style="text;strokeColor=none;align=center;fillColor=none;html=1;verticalAlign=middle;whiteSpace=wrap;rounded=0;fontFamily=Helvetica;fontSize=11;fontColor=default;labelBackgroundColor=none;resizable=0;rotation=-180;" vertex="1" parent="Ur9ymTX70aR9tCa4kkiK-522">
          <mxGeometry x="3" y="48" width="60" height="30" as="geometry" />
        </mxCell>
        <mxCell id="Ur9ymTX70aR9tCa4kkiK-547" value="&lt;font style=&quot;color: rgb(153, 153, 153);&quot;&gt;3&lt;/font&gt;" style="text;strokeColor=none;align=center;fillColor=none;html=1;verticalAlign=middle;whiteSpace=wrap;rounded=0;fontFamily=Helvetica;fontSize=11;fontColor=default;labelBackgroundColor=none;resizable=0;rotation=-180;" vertex="1" parent="Ur9ymTX70aR9tCa4kkiK-522">
          <mxGeometry x="36" y="48.000000000000114" width="60" height="30" as="geometry" />
        </mxCell>
        <mxCell id="Ur9ymTX70aR9tCa4kkiK-531" value="UDP Port 2" style="fillColor=#3399FF;aspect=fixed;sketch=0;pointerEvents=1;shadow=0;dashed=0;html=1;strokeColor=none;labelPosition=left;verticalLabelPosition=middle;outlineConnect=0;verticalAlign=middle;align=right;shape=mxgraph.openstack.neutron_port;rotation=-90;textDirection=vertical-lr;fontSize=6;spacing=12;fontColor=#3399FF;direction=east;spacingTop=22;" vertex="1" parent="Ur9ymTX70aR9tCa4kkiK-522">
          <mxGeometry x="84" y="48.57" width="10" height="10" as="geometry" />
        </mxCell>
        <mxCell id="Ur9ymTX70aR9tCa4kkiK-532" value="" style="shape=flexArrow;endArrow=classic;html=1;rounded=0;fillColor=#dae8fc;gradientColor=none;strokeColor=#6c8ebf;endWidth=4.077293815593892;endSize=2.4201342281879197;width=3.6241610738255035;fontColor=#3399FF;" edge="1" parent="Ur9ymTX70aR9tCa4kkiK-522">
          <mxGeometry width="50" height="50" relative="1" as="geometry">
            <mxPoint x="84" y="64.93000000000006" as="sourcePoint" />
            <mxPoint x="104" y="64.93000000000006" as="targetPoint" />
          </mxGeometry>
        </mxCell>
        <mxCell id="Ur9ymTX70aR9tCa4kkiK-535" value="256 pixels" style="text;strokeColor=none;align=center;fillColor=none;html=1;verticalAlign=middle;whiteSpace=wrap;rounded=0;fontFamily=Helvetica;fontSize=4;fontColor=#999999;labelBackgroundColor=none;resizable=0;rotation=-90;" vertex="1" parent="Ur9ymTX70aR9tCa4kkiK-522">
          <mxGeometry x="-7" y="15" width="60" height="30" as="geometry" />
        </mxCell>
        <mxCell id="WyHW8iZcDk4O4yjpzm6--7" value="" style="rounded=1;whiteSpace=wrap;html=1;labelPosition=center;verticalLabelPosition=bottom;align=center;verticalAlign=top;fontSize=9;fillColor=#dae8fc;gradientColor=#7ea6e0;strokeColor=#6c8ebf;spacing=0;" vertex="1" parent="1">
          <mxGeometry x="504" y="526.9300000000001" width="137" height="38" as="geometry" />
        </mxCell>
        <mxCell id="WyHW8iZcDk4O4yjpzm6--8" value="" style="rounded=1;whiteSpace=wrap;html=1;fillColor=#d5e8d4;strokeColor=#82b366;opacity=80;direction=west;" vertex="1" parent="1">
          <mxGeometry x="574" y="530.9300000000001" width="30" height="30" as="geometry" />
        </mxCell>
        <mxCell id="WyHW8iZcDk4O4yjpzm6--9" value="" style="rounded=1;whiteSpace=wrap;html=1;fillColor=#d5e8d4;strokeColor=#82b366;opacity=80;direction=west;" vertex="1" parent="1">
          <mxGeometry x="607" y="530.9300000000001" width="30" height="30" as="geometry" />
        </mxCell>
        <mxCell id="WyHW8iZcDk4O4yjpzm6--10" value="UDP Port 1" style="fillColor=#82B366;aspect=fixed;sketch=0;pointerEvents=1;shadow=0;dashed=0;html=1;strokeColor=none;labelPosition=right;verticalLabelPosition=middle;outlineConnect=0;verticalAlign=middle;align=left;shape=mxgraph.openstack.neutron_port;rotation=-90;textDirection=vertical-lr;fontSize=6;spacing=8;fontColor=#82B366;direction=north;" vertex="1" parent="1">
          <mxGeometry x="627" y="516.9300000000001" width="10" height="10" as="geometry" />
        </mxCell>
        <mxCell id="WyHW8iZcDk4O4yjpzm6--11" value="" style="shape=flexArrow;endArrow=classic;html=1;rounded=0;fillColor=#d5e8d4;gradientColor=#97d077;strokeColor=#82b366;endWidth=4.077293815593892;endSize=2.4201342281879197;width=3.6241610738255035;" edge="1" parent="1">
          <mxGeometry width="50" height="50" relative="1" as="geometry">
            <mxPoint x="626" y="513" as="sourcePoint" />
            <mxPoint x="646" y="513" as="targetPoint" />
          </mxGeometry>
        </mxCell>
        <mxCell id="WyHW8iZcDk4O4yjpzm6--13" value="" style="rounded=1;whiteSpace=wrap;html=1;fillColor=#dae8fc;strokeColor=#6c8ebf;opacity=80;gradientColor=none;" vertex="1" parent="1">
          <mxGeometry x="508" y="531" width="30" height="30" as="geometry" />
        </mxCell>
        <mxCell id="WyHW8iZcDk4O4yjpzm6--14" value="" style="rounded=1;whiteSpace=wrap;html=1;fillColor=#dae8fc;strokeColor=#6c8ebf;opacity=80;gradientColor=none;textDirection=ltr;direction=west;" vertex="1" parent="1">
          <mxGeometry x="541" y="531" width="30" height="30" as="geometry" />
        </mxCell>
        <mxCell id="WyHW8iZcDk4O4yjpzm6--15" value="UDP Port 2" style="fillColor=#3399FF;aspect=fixed;sketch=0;pointerEvents=1;shadow=0;dashed=0;html=1;strokeColor=none;labelPosition=right;verticalLabelPosition=middle;outlineConnect=0;verticalAlign=middle;align=left;shape=mxgraph.openstack.neutron_port;rotation=-90;textDirection=vertical-lr;fontSize=6;spacing=8;fontColor=#3399FF;direction=north;spacingTop=0;" vertex="1" parent="1">
          <mxGeometry x="559" y="516.9300000000001" width="10" height="10" as="geometry" />
        </mxCell>
        <mxCell id="WyHW8iZcDk4O4yjpzm6--16" value="" style="shape=flexArrow;endArrow=classic;html=1;rounded=0;fillColor=#dae8fc;gradientColor=none;strokeColor=#6c8ebf;endWidth=4.077293815593892;endSize=2.4201342281879197;width=3.6241610738255035;fontColor=#3399FF;" edge="1" parent="1">
          <mxGeometry width="50" height="50" relative="1" as="geometry">
            <mxPoint x="558" y="513" as="sourcePoint" />
            <mxPoint x="578" y="513" as="targetPoint" />
          </mxGeometry>
        </mxCell>
        <mxCell id="WyHW8iZcDk4O4yjpzm6--17" value="&lt;font style=&quot;color: rgb(153, 153, 153);&quot;&gt;1&lt;/font&gt;" style="text;strokeColor=none;align=center;fillColor=none;html=1;verticalAlign=middle;whiteSpace=wrap;rounded=0;fontFamily=Helvetica;fontSize=11;fontColor=default;labelBackgroundColor=none;resizable=0;rotation=-180;" vertex="1" parent="1">
          <mxGeometry x="590" y="530.9300000000001" width="60" height="30" as="geometry" />
        </mxCell>
        <mxCell id="WyHW8iZcDk4O4yjpzm6--18" value="&lt;font style=&quot;color: rgb(153, 153, 153);&quot;&gt;3&lt;/font&gt;" style="text;strokeColor=none;align=center;fillColor=none;html=1;verticalAlign=middle;whiteSpace=wrap;rounded=0;fontFamily=Helvetica;fontSize=11;fontColor=default;labelBackgroundColor=none;resizable=0;rotation=-180;" vertex="1" parent="1">
          <mxGeometry x="526" y="530.9300000000001" width="60" height="30" as="geometry" />
        </mxCell>
        <mxCell id="WyHW8iZcDk4O4yjpzm6--19" value="&lt;font style=&quot;color: rgb(153, 153, 153);&quot;&gt;2&lt;/font&gt;" style="text;strokeColor=none;align=center;fillColor=none;html=1;verticalAlign=middle;whiteSpace=wrap;rounded=0;fontFamily=Helvetica;fontSize=11;fontColor=default;labelBackgroundColor=none;resizable=0;rotation=-180;" vertex="1" parent="1">
          <mxGeometry x="558.73" y="530.93" width="60" height="30" as="geometry" />
        </mxCell>
        <mxCell id="WyHW8iZcDk4O4yjpzm6--20" value="&lt;font style=&quot;color: rgb(153, 153, 153);&quot;&gt;4&lt;/font&gt;" style="text;strokeColor=none;align=center;fillColor=none;html=1;verticalAlign=middle;whiteSpace=wrap;rounded=0;fontFamily=Helvetica;fontSize=11;fontColor=default;labelBackgroundColor=none;resizable=0;rotation=-180;flipH=1;" vertex="1" parent="1">
          <mxGeometry x="493" y="531" width="60" height="30" as="geometry" />
        </mxCell>
        <mxCell id="WyHW8iZcDk4O4yjpzm6--24" value="" style="rounded=1;whiteSpace=wrap;html=1;labelPosition=center;verticalLabelPosition=bottom;align=center;verticalAlign=top;fontSize=9;fillColor=#dae8fc;gradientColor=#7ea6e0;strokeColor=#6c8ebf;spacing=0;" vertex="1" parent="1">
          <mxGeometry x="505" y="684.9300000000002" width="137" height="38" as="geometry" />
        </mxCell>
        <mxCell id="WyHW8iZcDk4O4yjpzm6--25" value="" style="rounded=1;whiteSpace=wrap;html=1;fillColor=#d5e8d4;strokeColor=#82b366;opacity=80;direction=west;" vertex="1" parent="1">
          <mxGeometry x="509" y="688.9300000000002" width="30" height="30" as="geometry" />
        </mxCell>
        <mxCell id="WyHW8iZcDk4O4yjpzm6--26" value="" style="rounded=1;whiteSpace=wrap;html=1;fillColor=#d5e8d4;strokeColor=#82b366;opacity=80;direction=west;" vertex="1" parent="1">
          <mxGeometry x="542" y="688.9300000000002" width="30" height="30" as="geometry" />
        </mxCell>
        <mxCell id="WyHW8iZcDk4O4yjpzm6--27" value="UDP Port 1" style="fillColor=#82B366;aspect=fixed;sketch=0;pointerEvents=1;shadow=0;dashed=0;html=1;strokeColor=none;labelPosition=right;verticalLabelPosition=middle;outlineConnect=0;verticalAlign=middle;align=left;shape=mxgraph.openstack.neutron_port;rotation=-90;textDirection=vertical-lr;fontSize=6;spacing=8;fontColor=#82B366;direction=north;" vertex="1" parent="1">
          <mxGeometry x="515.25" y="674.9300000000002" width="10" height="10" as="geometry" />
        </mxCell>
        <mxCell id="WyHW8iZcDk4O4yjpzm6--28" value="" style="shape=flexArrow;endArrow=classic;html=1;rounded=0;fillColor=#d5e8d4;gradientColor=#97d077;strokeColor=#82b366;endWidth=4.077293815593892;endSize=2.4201342281879197;width=3.6241610738255035;" edge="1" parent="1">
          <mxGeometry width="50" height="50" relative="1" as="geometry">
            <mxPoint x="514.25" y="671.0000000000001" as="sourcePoint" />
            <mxPoint x="534.25" y="671.0000000000001" as="targetPoint" />
          </mxGeometry>
        </mxCell>
        <mxCell id="WyHW8iZcDk4O4yjpzm6--29" value="" style="rounded=1;whiteSpace=wrap;html=1;fillColor=#dae8fc;strokeColor=#6c8ebf;opacity=80;gradientColor=none;" vertex="1" parent="1">
          <mxGeometry x="575" y="689.0000000000001" width="30" height="30" as="geometry" />
        </mxCell>
        <mxCell id="WyHW8iZcDk4O4yjpzm6--30" value="" style="rounded=1;whiteSpace=wrap;html=1;fillColor=#dae8fc;strokeColor=#6c8ebf;opacity=80;gradientColor=none;textDirection=ltr;direction=west;" vertex="1" parent="1">
          <mxGeometry x="608" y="689.0000000000001" width="30" height="30" as="geometry" />
        </mxCell>
        <mxCell id="WyHW8iZcDk4O4yjpzm6--31" value="UDP Port 2" style="fillColor=#3399FF;aspect=fixed;sketch=0;pointerEvents=1;shadow=0;dashed=0;html=1;strokeColor=none;labelPosition=right;verticalLabelPosition=middle;outlineConnect=0;verticalAlign=middle;align=left;shape=mxgraph.openstack.neutron_port;rotation=-90;textDirection=vertical-lr;fontSize=6;spacing=8;fontColor=#3399FF;direction=north;spacingTop=0;" vertex="1" parent="1">
          <mxGeometry x="621" y="674.9300000000002" width="10" height="10" as="geometry" />
        </mxCell>
        <mxCell id="WyHW8iZcDk4O4yjpzm6--32" value="" style="shape=flexArrow;endArrow=classic;html=1;rounded=0;fillColor=#dae8fc;gradientColor=none;strokeColor=#6c8ebf;endWidth=4.077293815593892;endSize=2.4201342281879197;width=3.6241610738255035;fontColor=#3399FF;" edge="1" parent="1">
          <mxGeometry width="50" height="50" relative="1" as="geometry">
            <mxPoint x="620" y="671.0000000000001" as="sourcePoint" />
            <mxPoint x="640" y="671.0000000000001" as="targetPoint" />
          </mxGeometry>
        </mxCell>
        <mxCell id="WyHW8iZcDk4O4yjpzm6--37" value="" style="rounded=1;whiteSpace=wrap;html=1;labelPosition=center;verticalLabelPosition=bottom;align=center;verticalAlign=top;fontSize=9;fillColor=#dae8fc;gradientColor=#7ea6e0;strokeColor=#6c8ebf;spacing=0;" vertex="1" parent="1">
          <mxGeometry x="502.25" y="601.9300000000001" width="137" height="38" as="geometry" />
        </mxCell>
        <mxCell id="WyHW8iZcDk4O4yjpzm6--38" value="" style="rounded=1;whiteSpace=wrap;html=1;fillColor=#d5e8d4;strokeColor=#82b366;opacity=80;direction=west;" vertex="1" parent="1">
          <mxGeometry x="572" y="606.0000000000001" width="30" height="30" as="geometry" />
        </mxCell>
        <mxCell id="WyHW8iZcDk4O4yjpzm6--39" value="" style="rounded=1;whiteSpace=wrap;html=1;fillColor=#d5e8d4;strokeColor=#82b366;opacity=80;direction=west;" vertex="1" parent="1">
          <mxGeometry x="606" y="606.0000000000001" width="30" height="30" as="geometry" />
        </mxCell>
        <mxCell id="WyHW8iZcDk4O4yjpzm6--40" value="UDP Port 1" style="fillColor=#82B366;aspect=fixed;sketch=0;pointerEvents=1;shadow=0;dashed=0;html=1;strokeColor=none;labelPosition=right;verticalLabelPosition=middle;outlineConnect=0;verticalAlign=middle;align=left;shape=mxgraph.openstack.neutron_port;rotation=-90;textDirection=vertical-lr;fontSize=6;spacing=8;fontColor=#82B366;direction=north;" vertex="1" parent="1">
          <mxGeometry x="512.5" y="591.9300000000001" width="10" height="10" as="geometry" />
        </mxCell>
        <mxCell id="WyHW8iZcDk4O4yjpzm6--41" value="" style="shape=flexArrow;endArrow=classic;html=1;rounded=0;fillColor=#d5e8d4;gradientColor=#97d077;strokeColor=#82b366;endWidth=4.077293815593892;endSize=2.4201342281879197;width=3.6241610738255035;" edge="1" parent="1">
          <mxGeometry width="50" height="50" relative="1" as="geometry">
            <mxPoint x="511.5" y="588" as="sourcePoint" />
            <mxPoint x="531.5" y="588" as="targetPoint" />
          </mxGeometry>
        </mxCell>
        <mxCell id="WyHW8iZcDk4O4yjpzm6--42" value="" style="rounded=1;whiteSpace=wrap;html=1;fillColor=#dae8fc;strokeColor=#6c8ebf;opacity=80;gradientColor=none;" vertex="1" parent="1">
          <mxGeometry x="505.25" y="606" width="30" height="30" as="geometry" />
        </mxCell>
        <mxCell id="WyHW8iZcDk4O4yjpzm6--43" value="" style="rounded=1;whiteSpace=wrap;html=1;fillColor=#dae8fc;strokeColor=#6c8ebf;opacity=80;gradientColor=none;textDirection=ltr;direction=west;" vertex="1" parent="1">
          <mxGeometry x="538.25" y="606" width="30" height="30" as="geometry" />
        </mxCell>
        <mxCell id="WyHW8iZcDk4O4yjpzm6--44" value="UDP Port 2" style="fillColor=#3399FF;aspect=fixed;sketch=0;pointerEvents=1;shadow=0;dashed=0;html=1;strokeColor=none;labelPosition=right;verticalLabelPosition=middle;outlineConnect=0;verticalAlign=middle;align=left;shape=mxgraph.openstack.neutron_port;rotation=-90;textDirection=vertical-lr;fontSize=6;spacing=8;fontColor=#3399FF;direction=north;spacingTop=0;" vertex="1" parent="1">
          <mxGeometry x="618.25" y="591.9300000000001" width="10" height="10" as="geometry" />
        </mxCell>
        <mxCell id="WyHW8iZcDk4O4yjpzm6--45" value="" style="shape=flexArrow;endArrow=classic;html=1;rounded=0;fillColor=#dae8fc;gradientColor=none;strokeColor=#6c8ebf;endWidth=4.077293815593892;endSize=2.4201342281879197;width=3.6241610738255035;fontColor=#3399FF;" edge="1" parent="1">
          <mxGeometry width="50" height="50" relative="1" as="geometry">
            <mxPoint x="617.25" y="588" as="sourcePoint" />
            <mxPoint x="637.25" y="588" as="targetPoint" />
          </mxGeometry>
        </mxCell>
        <mxCell id="WyHW8iZcDk4O4yjpzm6--50" value="" style="shape=image;imageAspect=0;aspect=fixed;verticalLabelPosition=bottom;verticalAlign=top;image=data:image/png,iVBORw0KGgoAAAANSUhEUgAAADwAAABSCAYAAAAIArdYAAAABHNCSVQICAgIfAhkiAAAABl0RVh0U29mdHdhcmUAZ25vbWUtc2NyZWVuc2hvdO8Dvz4AAAAudEVYdENyZWF0aW9uIFRpbWUAV2VkIDMwIEp1bCAyMDI1IDAyOjU4OjQ1IFBNIENFU1T0N1c7AAAFGklEQVR4nO1bW1PiSBT+OmnCTURRBh0dvLvq1rizs1tTtf//aedhd2ZqRwVWHS5eAEVRFEhC9z547SQ1iySBTOB74+vu9PnSp0/3OSnIp6McxxBBGrQB/cZIsN9BMVQ7eAhXeCTY7xg6wfQuZj1ELgLy+MufnAQhTHNDJ/9xFi5tdU75h7MQTCw6+ocbrbDfIT2+CHF/+5ajXjPIbW7oXJoOamLWYdBUDUzXIVMZVAlAkmXX56V9yQ450G42cV2ro149R+PyCmqzZeoWUBREJ8YRTyYQTyYQjIQdN4X8Vcy6rrm4+y+qxRN0dL3rMTKlmJqbQXprFYRYnam9wVWXbt82cfhlD9e1yxeP7eg6KvkSbi7rWNreRDgWdcQm14KWpmrIfPxsKZYQAkm+27eBoAKqBCBT2XIlb+rX2Pvzb8st0AtcWWHGGA4/76B92zS1ReMxzK0tQQmHEAgqkCkFYx1obRWtm1tU8keoV2vCGF3VUModYnl707Ztrgi+OKmgfiYaTSSC9NYaXqXnTP1liUKmFKFoBPHpKeR3sqgWjoU+56VTJOdnEUtM2LLNcZdmHYb815zpKptamEfyzev/HU8kgoWtdcSTCVNbtXhi2z7HBdfPaqZoHEvEMb/RfbQlEsHMUtrUv9W4AeswW/Y5Lrh51TBxsakEXnqyhMYikKh4EdE1HZzbE2y6eBCYvPFFXCgWxfT8LNRWC1pLhdpuIzIeFfp28zw5QE0rzPQOOOe27DMV4u1moJOpJCZTye8O6O555L4KZejHzZ1fYp9nk4eOpoMZ3FeiMgixZ7JnBeuqCs7EdQpGwpBknwqun12AdToCN5matn2v9qRgrdXG6UFB4JRQEInXKdvP9pxgzjjyXzPQVfWRI4Rg/qcVyNT+xdBzgisF8106NBbBhFXk7wESPFRILX8robibA+dPLcFIGOsf3pmCVa9zUHigVM45x+lBAUfZA7GdELzZWEVAURybtz8lnu+AM47CThbnJTExkGQZS79sIp6atly5XnEfBR4e+fx9uM9p7Ta+fdnDlSGVpEoA8xurz/atc/MOrGrZvG4g+/ETdFUTeEmWsfrbW0Qn4q7MS8GfO4z7oYpzjtpJGUeZfZPYaDyGxe0thKJhiHY5Z4u4wg+3mOeTOchxzlHJl1DKHJj6ReMxrP2+/XTWumSLKJhzc1xziGOMIf9PBrXjMoyYWU5jdmURkkQsxzrJWexh511JVzUUdrK4OK0KLRKVkd5cw9TcjMU4d2zpS9DKf83gsnwmcDRAsf7hV4THnKk3dwtXz2HOGI4y+yaxSjiE5Xc/IxSLOnrGdgNXV/j8+BQVQ7k1EApi44/3oBa3p37AteShcVFHaXdfiJRUUbD6/u3AxMItwR29g9JOTkjgiSRhcXsD4fExN6bsGq4ILh8WcHstlmtnVxYwPjXpxnQvguN7uHVzi/JhUeDGJuOYWVlweqqe4Ljg89IJODMUywlBcTfnyPODkQheLZi/T3ULxwUbMx8AaNQu0ejhG7EVYokJW4Lv9rBFcbtXzlhadQ092keF+zV/6tMr1w/YsVlwaSdurtPpOVPa5ySC4VDXtlhxju/hpMUHby/Bc2VatzES7HeMBPsdI8F+x8A/tfQbQ7fCQyj4waetvrj4kLv/k8dDemGs/PuPGzqXptY+AN9yhvSQCI1+5Awu7b0VcZqj5nfALd6LfzjHSzxe54YuSo8E+x1DKrjHKv6PyIn/eRh0CO0D9x/apTDL7w+OYgAAAABJRU5ErkJggg==;flipV=1;" vertex="1" parent="1">
          <mxGeometry x="615.88" y="613.57" width="10.24" height="14" as="geometry" />
        </mxCell>
        <mxCell id="WyHW8iZcDk4O4yjpzm6--51" value="" style="shape=image;imageAspect=0;aspect=fixed;verticalLabelPosition=bottom;verticalAlign=top;image=data:image/png,iVBORw0KGgoAAAANSUhEUgAAADwAAABSCAYAAAAIArdYAAAABHNCSVQICAgIfAhkiAAAABl0RVh0U29mdHdhcmUAZ25vbWUtc2NyZWVuc2hvdO8Dvz4AAAAudEVYdENyZWF0aW9uIFRpbWUAV2VkIDMwIEp1bCAyMDI1IDAyOjU4OjU2IFBNIENFU1QieADAAAAC4ElEQVR4nO1b72/SQBh+rhToGCzNHDYqi0qi+MnoB/X//+Q3E38kI85l4gIoMJQp2aTQ88M2aLsrbmvfa3PXJyGEh7u+75P37r3rey17393nSBHewsPcdVEsFcEMg9yeSW7hPzAKBkqFsjx70ixlBLlg1WGmmrFSgHYRzgWrDhOaTWLtIpwLVh3aCTb5MmsxMODil7qcL8I81EhNLjSkRWuUWlxIMBM0VIvTPcLq41xwcH5DZc7MmkPUnKZDWiOkVuKZTk4w6PSwmC+WnLW5gUarSWo3lbp0/+Abel8O4S28AF+1t8htSxV8+meKo70DTIbHMs0GIEUw5xzj/gCHH9rgnneNHnQgFzw7+4vOp8+YjMapiwVlluYex2Q4RvvtO/wajAJiK1s1tF6/QKEoP4WQWTzu/cDXj21wHlwH7j5sYPdZ80rCkgUywXPXDYgtWWU0Wk1s33fAGFNP8BKMYaO6iaevnqNkyTsWjUJg48FCW9G4HAA8ePIIzuNdGIUCuK9d1IZnVZRJ1pdLLlCIT/IOtGRZaL15idq2HWjAozoA4FzQLgFf/BzZkLadHTAmqjykC7JlKYtioePdUi5YdegnOEuFVBGStmFkqVQuQtI2UivxREWE2h9DbEYWJwKtXe2Slm8vnUKqimxCZ3cVYcbOP35QcusmK6HdlWDOBVNAAicCod2MHJeKQGNXv6SVpXV4HZ8UtItwLlh15IJVB0nVctz9junJ77Vt+MKDFzpcc0/PcLS3v7ZfpVbFnca9W/tGIngyGuNnf3Djfu5shmGnu7aN7ezEEmxIu+tLEjH8W248mKDiH4ejRByfl0M6yZ2r7dRRrlSu5fxNYVVX172NfyRz2HbqsJ06xaVjQ7tlKResOnLBqiMXrDryF6ZVh6aC/eOah74V40xcPh7IfccTCnPaDWnf3VJaxyxyOV+EmeAhAfW4wOu0V6EetyrxXPwRKI0oyJGUeLLMaZel/wGafievCv+j0wAAAABJRU5ErkJggg==;flipV=1;" vertex="1" parent="1">
          <mxGeometry x="581.51" y="613.5" width="10.97" height="15" as="geometry" />
        </mxCell>
        <mxCell id="WyHW8iZcDk4O4yjpzm6--52" value="" style="shape=image;imageAspect=0;aspect=fixed;verticalLabelPosition=bottom;verticalAlign=top;image=data:image/png,iVBORw0KGgoAAAANSUhEUgAAADwAAABSCAYAAAAIArdYAAAABHNCSVQICAgIfAhkiAAAABl0RVh0U29mdHdhcmUAZ25vbWUtc2NyZWVuc2hvdO8Dvz4AAAAudEVYdENyZWF0aW9uIFRpbWUAV2VkIDMwIEp1bCAyMDI1IDAyOjU4OjI2IFBNIENFU1TApBu5AAAF+0lEQVR4nO1bW1PbRhT+dnXz3QbHhlCThIZbp5kQmqQvzUw6mfah/7gvnTadzjRppwEyUyBAUjCGcIkNvsjWfftgbrKUBCzZeGR/T/B5dfZ82tXunnMk8u+OztBHoNftQLcxEBx0DAQHHQPBQQffV5twP47wQHDQwaPPHuK+G+GB4KCj7wTzAE7WrdPVi4AEmKN2ovl3kDlqJ85/CCpHAeLSMLhcP45wf6Ep+PRG2J/vQHK8o1EPOukn13dTmr+ujg1dg6ErsCwLvCCBFyRQ2vn735UUD2MW5MoRyoc7KBd3USt/gGnotjaEEIQiCcSHskhlxxFL3oAUjvruC3m9rXVUs1Kv4s0/v0CpV2CZ5mXdAi8IyI5P49bMIxDitse2h44JZoxhb3MZ2+uLMA2tbTuxVAaT958gHEv54ldnHhrGsJ9/g63Vv13FUsqB40UIYgiCFAYvSuA49+WkdnyItcXnsKzLzo5PoyOL1tFhAZvLL8CYffIQSjE2cQ/DI7fAiyEIYgiUcjANHZpaR6N2jMLGEurVI9t19UoJb1//gakHTz375r9gxrC9tuAQG09lMf3wGUQp7HRClMCLEiLxISTTY1hb/A3lD7u2NqX9PORKCdHEsCf3fJ/Sxx92IFeKDv7u3BNXsa3gRQnT898jFE3aeMs0UC3te/bPd8GFjSXb/4QQfPX4R4RbBHwKvCAhffOOgz8u7rq2vwp8FWwaOhS5YuN4MYRYKntlW+lRp2CtUfPkH+wpnnOQNjkGhpHbs9CUOgxdhaGpEKQwKMdd2Z7bNmRoKpgH/wCAZy67cLvRJseJyE3Ou7R0Nr5sHxdBOR5g3iLkng0eNKXu4KRI3LPdnhVc2tt0cIn0Tc92e1KwoWs4KKzbOEo5JIZHPNu+tvDwY9A1BesLv6JRO7bxqew4ovG0Z/s9IZgxBk2R0ZDL2Fp+iYZctv0eS2UwNfcUxId4uauCGWMovn8HTZGBk9FU6zXIlSIMXYNp6kDLthFNpjHz8AdfxOKiYOaSxfWdO4miqkefPiJSjkcyPYb02ATSo3dACPXNlzPB15Uqb0X21gzGJ+dBOR4cz59d5Ve/XX2L5zJ9HeTf4LCwASkUQTSVQW5qHqFIwjcfLjzDp+5cvB8+cwSID2XBCWKzBbNgGQZMQ4OuKdDVRpO3TCj1KpR6FcXdd/hicg5jd+dOknzefCGL+dMUTxcEt3KMgTGrKdyyoNarKKwv4PiwABsIQWJ4FLOPfgShnEfBW2o3Z/VnwQAc7+fx3/KfZyOOkzBzfPohbk7c82SfojUjSAiukyMAhkZuYfqbZ7atiDGG7bVX0DXFUx/UsZIwl3DkGrhYMoOxltFkzMJ+ftVTHz1dLk3eyDkOHJXSHhhzy2AGoFzKixIo4WycoalgltW+TT9XLF2tQ23UYGjqWcYjkR5FJNHeoZ8Q4nJsssAuuae7wdez9EF+DTtvF21cJjeFiXvftWXPNA1HupdyvHMxugJ8ndLRZNpxuJMrxSvUlOzQGrKj4sAJIghp321fBYeiSUfJRK1XoTaqV7bFGMP+1oojeoqlsp6Ka/4KjsQRjtnzz6ahY/Wvn22HiMvgIL+CskseOpXNefLR31WaEIzPPgal9pVV1xS8XXqOWvnwsyYYs3BYWMNOS0IfJweSWDLjzcWFDhwtN5df4CC/6tIbQSY3hdzkg+ZzSOjZ9GSWhUrpPXY2ltCoHTku5XgBs9/+5Lm21BHBhqZgY+l3VD5SGiGEgHICOI4H4TgQkOY2pquu7SnHY3LuKZKZnOfi+LlgnwMjyzSxtfISpb1NTwXxUCSO8ZlHGMre9sU/srCp2tZB0tLGE8cYFLmMrZUXqJT2LinxHKN3vsbYl/fBCZJv/pFXm90JDxW5jErxPRS5DEUuw9BVmKYOy7JAaTOdwwsSQtEUwrEEkjdyEEP+v9TStaxlKJp01HyvAz0dPHQCA8FBx0Bw0DEQHHQMPpgOOvpUcA98i9At7sJHHqc1tQtxVQC5vpvSvEsBxqVZcDiXbw+Jy4sDweFcpnRvjYjf3P84pVn3tyY3XQAAAABJRU5ErkJggg==;flipV=1;" vertex="1" parent="1">
          <mxGeometry x="514.9699999999999" y="613.78" width="10.57" height="14.43" as="geometry" />
        </mxCell>
        <mxCell id="WyHW8iZcDk4O4yjpzm6--53" value="" style="shape=image;imageAspect=0;aspect=fixed;verticalLabelPosition=bottom;verticalAlign=top;image=data:image/png,iVBORw0KGgoAAAANSUhEUgAAADwAAABSCAYAAAAIArdYAAAABHNCSVQICAgIfAhkiAAAABl0RVh0U29mdHdhcmUAZ25vbWUtc2NyZWVuc2hvdO8Dvz4AAAAudEVYdENyZWF0aW9uIFRpbWUAV2VkIDMwIEp1bCAyMDI1IDAyOjU3OjMzIFBNIENFU1QXZaq5AAAEOUlEQVR4nO1bbU/bVhR+rl+ABAgUaKHNooaVqjCmttJaqeqXfduf3qZp1TZpraCsL6PQ0DW0liAZTQU0JHbsuw8ptq/jkBf72uu9eaR88GP7nvP4XB+fe65CXhoWhURQ0nYgaUgnWJNqPssY4ZFg0aFBspdYugiPBIsO6QRr1M1aBAT4fCQu54swDVwkJheY0mHfKLG4gGAScqFYnOwRFh9twez7DZE57f/mEG9O0iktEVJv8RyUt3F8dMBwubklLBXXuNjTuIzaJz5WDbz9+zEodRheUVQAfASnNqXtloXyqycdYnkjHcGUYn93E/WTWuKmUxFcq7zDYXk7DdPJC7ZbFvZ3N0FpO10SElb38kPCgilKfz1ipnI2Nw9VG0vMg0QF1yoGatX3nnFVR3HtfqJRTkyw3bKw9/w3UMfLyteWv0FmajYpF4Bg4UECpWhcHKUO3rz4A1bzzD2nj2eweH011KmwsjguX5hGPK9V6fHRAY4Oyi6vqBpW7n4PfSwLy2yE3AnQkAHj8IX7lDYbn7Cz8TOoY7vcYuEWZuau8jYdCu6C93c34dgt93hiModrN27zNtsVXAV/rBr41yi5x6qqY+3eD9DHJniavRDcBDfqJ9h79ojhFq+vYiwzxctkX+AimFIKo7TFJKTp2Sso3Pwu8coqCC6CK/uvUDX2PCOqhuL6AxAlXbEAoMT9KTKbdRhvnjNn8yt3kM3N97w3DHH7p8XZ7qbUQWnrV5iNTy43u5BH/uvOrNxvrONux8fa4jl8t4vjD167hhAFhdX7F0azW2R4tZ40b2j/8xicMxt1GKUt9wxRFCyvP0R2+lKPe3shHv/OEUvSchwbOxs/MrVybv4qFvI3hhyRX2vRV0sPnwqq71/jzLfG1cczKK49aO/KMkVxWIEcZiN4XzT//JwXYULaP8Zub65RP0F5+0+mg7G8/hATk7n+xgsFHcqXfjhPMKWdD6cH5zg2/nnxO7PGnVsqYmYh3/943TCgL/1ygb70YFPktFZhsjIAOI7TUVJeBOrYsG2L4U5qFbze+oXhJrI5fHXzLggJpp3BfI7UiDd9SeoctcNy6LUDjXt2ig9npww3NXMZdOVOf2/EBUh9q2VQRPU3UoQJUaCqeiQHKCizXj4ft73d4kFRVdABKrRuIE/LzaEfmt2yYDbrkRywzSZ2Nn6C3TJdbvZKAYVb95jrFEXFeAxLy0gRVjUdGW0mkgOW3uhYMqqajsxktHG7Qbr94ZFg0SGdYC3CSiserhditusWHoR2+pEE11U45WPX/Szx2mbpxSmqhqXlb+HY3s5EdvpSZ/0fk12y+Xb4wuNLhHRJayRYdIwEi46RYNHxxbV4okK6CEsqOGw3RFBOc/dwqG8NJTAn3ZT2dS3TWiAmy/kiTELa3OJxzN9pOyEe57V4Pp9gugMCcqm3eJLmpMvSI8Gi4z8fwJkP1j7JXQAAAABJRU5ErkJggg==;flipV=1;" vertex="1" parent="1">
          <mxGeometry x="547.7800000000001" y="613.5" width="10.95" height="14.96" as="geometry" />
        </mxCell>
        <mxCell id="WyHW8iZcDk4O4yjpzm6--67" value="" style="rounded=1;whiteSpace=wrap;html=1;labelPosition=center;verticalLabelPosition=bottom;align=center;verticalAlign=top;fontSize=9;fillColor=#dae8fc;gradientColor=#7ea6e0;strokeColor=#6c8ebf;spacing=0;" vertex="1" parent="1">
          <mxGeometry x="509" y="788.9300000000001" width="137" height="38" as="geometry" />
        </mxCell>
        <mxCell id="WyHW8iZcDk4O4yjpzm6--70" value="UDP Port 1" style="fillColor=#82B366;aspect=fixed;sketch=0;pointerEvents=1;shadow=0;dashed=0;html=1;strokeColor=none;labelPosition=right;verticalLabelPosition=middle;outlineConnect=0;verticalAlign=middle;align=left;shape=mxgraph.openstack.neutron_port;rotation=-90;textDirection=vertical-lr;fontSize=6;spacing=8;fontColor=#82B366;direction=north;" vertex="1" parent="1">
          <mxGeometry x="519.25" y="778.9300000000001" width="10" height="10" as="geometry" />
        </mxCell>
        <mxCell id="WyHW8iZcDk4O4yjpzm6--71" value="" style="shape=flexArrow;endArrow=classic;html=1;rounded=0;fillColor=#d5e8d4;gradientColor=#97d077;strokeColor=#82b366;endWidth=4.077293815593892;endSize=2.4201342281879197;width=3.6241610738255035;" edge="1" parent="1">
          <mxGeometry width="50" height="50" relative="1" as="geometry">
            <mxPoint x="518.25" y="775" as="sourcePoint" />
            <mxPoint x="538.25" y="775" as="targetPoint" />
          </mxGeometry>
        </mxCell>
        <mxCell id="WyHW8iZcDk4O4yjpzm6--74" value="UDP Port 2" style="fillColor=#3399FF;aspect=fixed;sketch=0;pointerEvents=1;shadow=0;dashed=0;html=1;strokeColor=none;labelPosition=right;verticalLabelPosition=middle;outlineConnect=0;verticalAlign=middle;align=left;shape=mxgraph.openstack.neutron_port;rotation=-90;textDirection=vertical-lr;fontSize=6;spacing=8;fontColor=#3399FF;direction=north;spacingTop=0;" vertex="1" parent="1">
          <mxGeometry x="625" y="778.9300000000001" width="10" height="10" as="geometry" />
        </mxCell>
        <mxCell id="WyHW8iZcDk4O4yjpzm6--75" value="" style="shape=flexArrow;endArrow=classic;html=1;rounded=0;fillColor=#dae8fc;gradientColor=none;strokeColor=#6c8ebf;endWidth=4.077293815593892;endSize=2.4201342281879197;width=3.6241610738255035;fontColor=#3399FF;" edge="1" parent="1">
          <mxGeometry width="50" height="50" relative="1" as="geometry">
            <mxPoint x="624" y="775" as="sourcePoint" />
            <mxPoint x="644" y="775" as="targetPoint" />
          </mxGeometry>
        </mxCell>
        <mxCell id="WyHW8iZcDk4O4yjpzm6--81" value="&lt;font style=&quot;color: rgb(153, 153, 153);&quot;&gt;1&lt;/font&gt;" style="rounded=1;whiteSpace=wrap;html=1;fillColor=#d5e8d4;strokeColor=#82b366;opacity=80;" vertex="1" parent="1">
          <mxGeometry x="513" y="792.93" width="30" height="30" as="geometry" />
        </mxCell>
        <mxCell id="WyHW8iZcDk4O4yjpzm6--82" value="&lt;font style=&quot;color: rgb(153, 153, 153);&quot;&gt;2&lt;/font&gt;" style="rounded=1;whiteSpace=wrap;html=1;fillColor=#d5e8d4;strokeColor=#82b366;opacity=80;" vertex="1" parent="1">
          <mxGeometry x="546" y="792.9300000000001" width="30" height="30" as="geometry" />
        </mxCell>
        <mxCell id="WyHW8iZcDk4O4yjpzm6--85" value="&lt;font style=&quot;color: rgb(153, 153, 153);&quot;&gt;3&lt;/font&gt;" style="rounded=1;whiteSpace=wrap;html=1;fillColor=#dae8fc;strokeColor=#6c8ebf;opacity=80;gradientColor=none;" vertex="1" parent="1">
          <mxGeometry x="579" y="792.9300000000001" width="30" height="30" as="geometry" />
        </mxCell>
        <mxCell id="WyHW8iZcDk4O4yjpzm6--86" value="&lt;font style=&quot;color: rgb(153, 153, 153);&quot;&gt;4&lt;/font&gt;" style="rounded=1;whiteSpace=wrap;html=1;fillColor=#dae8fc;strokeColor=#6c8ebf;opacity=80;gradientColor=none;" vertex="1" parent="1">
          <mxGeometry x="612" y="792.9300000000001" width="30" height="30" as="geometry" />
        </mxCell>
        <mxCell id="WyHW8iZcDk4O4yjpzm6--91" value="" style="shape=image;imageAspect=0;aspect=fixed;verticalLabelPosition=bottom;verticalAlign=top;image=data:image/png,iVBORw0KGgoAAAANSUhEUgAAADwAAABSCAYAAAAIArdYAAAABHNCSVQICAgIfAhkiAAAABl0RVh0U29mdHdhcmUAZ25vbWUtc2NyZWVuc2hvdO8Dvz4AAAAudEVYdENyZWF0aW9uIFRpbWUAV2VkIDMwIEp1bCAyMDI1IDAyOjU4OjQ1IFBNIENFU1T0N1c7AAAFGklEQVR4nO1bW1PiSBT+OmnCTURRBh0dvLvq1rizs1tTtf//aedhd2ZqRwVWHS5eAEVRFEhC9z547SQ1iySBTOB74+vu9PnSp0/3OSnIp6McxxBBGrQB/cZIsN9BMVQ7eAhXeCTY7xg6wfQuZj1ELgLy+MufnAQhTHNDJ/9xFi5tdU75h7MQTCw6+ocbrbDfIT2+CHF/+5ajXjPIbW7oXJoOamLWYdBUDUzXIVMZVAlAkmXX56V9yQ450G42cV2ro149R+PyCmqzZeoWUBREJ8YRTyYQTyYQjIQdN4X8Vcy6rrm4+y+qxRN0dL3rMTKlmJqbQXprFYRYnam9wVWXbt82cfhlD9e1yxeP7eg6KvkSbi7rWNreRDgWdcQm14KWpmrIfPxsKZYQAkm+27eBoAKqBCBT2XIlb+rX2Pvzb8st0AtcWWHGGA4/76B92zS1ReMxzK0tQQmHEAgqkCkFYx1obRWtm1tU8keoV2vCGF3VUModYnl707Ztrgi+OKmgfiYaTSSC9NYaXqXnTP1liUKmFKFoBPHpKeR3sqgWjoU+56VTJOdnEUtM2LLNcZdmHYb815zpKptamEfyzev/HU8kgoWtdcSTCVNbtXhi2z7HBdfPaqZoHEvEMb/RfbQlEsHMUtrUv9W4AeswW/Y5Lrh51TBxsakEXnqyhMYikKh4EdE1HZzbE2y6eBCYvPFFXCgWxfT8LNRWC1pLhdpuIzIeFfp28zw5QE0rzPQOOOe27DMV4u1moJOpJCZTye8O6O555L4KZejHzZ1fYp9nk4eOpoMZ3FeiMgixZ7JnBeuqCs7EdQpGwpBknwqun12AdToCN5matn2v9qRgrdXG6UFB4JRQEInXKdvP9pxgzjjyXzPQVfWRI4Rg/qcVyNT+xdBzgisF8106NBbBhFXk7wESPFRILX8robibA+dPLcFIGOsf3pmCVa9zUHigVM45x+lBAUfZA7GdELzZWEVAURybtz8lnu+AM47CThbnJTExkGQZS79sIp6atly5XnEfBR4e+fx9uM9p7Ta+fdnDlSGVpEoA8xurz/atc/MOrGrZvG4g+/ETdFUTeEmWsfrbW0Qn4q7MS8GfO4z7oYpzjtpJGUeZfZPYaDyGxe0thKJhiHY5Z4u4wg+3mOeTOchxzlHJl1DKHJj6ReMxrP2+/XTWumSLKJhzc1xziGOMIf9PBrXjMoyYWU5jdmURkkQsxzrJWexh511JVzUUdrK4OK0KLRKVkd5cw9TcjMU4d2zpS9DKf83gsnwmcDRAsf7hV4THnKk3dwtXz2HOGI4y+yaxSjiE5Xc/IxSLOnrGdgNXV/j8+BQVQ7k1EApi44/3oBa3p37AteShcVFHaXdfiJRUUbD6/u3AxMItwR29g9JOTkjgiSRhcXsD4fExN6bsGq4ILh8WcHstlmtnVxYwPjXpxnQvguN7uHVzi/JhUeDGJuOYWVlweqqe4Ljg89IJODMUywlBcTfnyPODkQheLZi/T3ULxwUbMx8AaNQu0ejhG7EVYokJW4Lv9rBFcbtXzlhadQ092keF+zV/6tMr1w/YsVlwaSdurtPpOVPa5ySC4VDXtlhxju/hpMUHby/Bc2VatzES7HeMBPsdI8F+x8A/tfQbQ7fCQyj4waetvrj4kLv/k8dDemGs/PuPGzqXptY+AN9yhvSQCI1+5Awu7b0VcZqj5nfALd6LfzjHSzxe54YuSo8E+x1DKrjHKv6PyIn/eRh0CO0D9x/apTDL7w+OYgAAAABJRU5ErkJggg==;flipV=1;" vertex="1" parent="1">
          <mxGeometry x="551.88" y="697" width="10.24" height="14" as="geometry" />
        </mxCell>
        <mxCell id="WyHW8iZcDk4O4yjpzm6--92" value="" style="shape=image;imageAspect=0;aspect=fixed;verticalLabelPosition=bottom;verticalAlign=top;image=data:image/png,iVBORw0KGgoAAAANSUhEUgAAADwAAABSCAYAAAAIArdYAAAABHNCSVQICAgIfAhkiAAAABl0RVh0U29mdHdhcmUAZ25vbWUtc2NyZWVuc2hvdO8Dvz4AAAAudEVYdENyZWF0aW9uIFRpbWUAV2VkIDMwIEp1bCAyMDI1IDAyOjU4OjU2IFBNIENFU1QieADAAAAC4ElEQVR4nO1b72/SQBh+rhToGCzNHDYqi0qi+MnoB/X//+Q3E38kI85l4gIoMJQp2aTQ88M2aLsrbmvfa3PXJyGEh7u+75P37r3rey17393nSBHewsPcdVEsFcEMg9yeSW7hPzAKBkqFsjx70ixlBLlg1WGmmrFSgHYRzgWrDhOaTWLtIpwLVh3aCTb5MmsxMODil7qcL8I81EhNLjSkRWuUWlxIMBM0VIvTPcLq41xwcH5DZc7MmkPUnKZDWiOkVuKZTk4w6PSwmC+WnLW5gUarSWo3lbp0/+Abel8O4S28AF+1t8htSxV8+meKo70DTIbHMs0GIEUw5xzj/gCHH9rgnneNHnQgFzw7+4vOp8+YjMapiwVlluYex2Q4RvvtO/wajAJiK1s1tF6/QKEoP4WQWTzu/cDXj21wHlwH7j5sYPdZ80rCkgUywXPXDYgtWWU0Wk1s33fAGFNP8BKMYaO6iaevnqNkyTsWjUJg48FCW9G4HAA8ePIIzuNdGIUCuK9d1IZnVZRJ1pdLLlCIT/IOtGRZaL15idq2HWjAozoA4FzQLgFf/BzZkLadHTAmqjykC7JlKYtioePdUi5YdegnOEuFVBGStmFkqVQuQtI2UivxREWE2h9DbEYWJwKtXe2Slm8vnUKqimxCZ3cVYcbOP35QcusmK6HdlWDOBVNAAicCod2MHJeKQGNXv6SVpXV4HZ8UtItwLlh15IJVB0nVctz9junJ77Vt+MKDFzpcc0/PcLS3v7ZfpVbFnca9W/tGIngyGuNnf3Djfu5shmGnu7aN7ezEEmxIu+tLEjH8W248mKDiH4ejRByfl0M6yZ2r7dRRrlSu5fxNYVVX172NfyRz2HbqsJ06xaVjQ7tlKResOnLBqiMXrDryF6ZVh6aC/eOah74V40xcPh7IfccTCnPaDWnf3VJaxyxyOV+EmeAhAfW4wOu0V6EetyrxXPwRKI0oyJGUeLLMaZel/wGafievCv+j0wAAAABJRU5ErkJggg==;flipV=1;" vertex="1" parent="1">
          <mxGeometry x="517.5" y="696.4300000000001" width="10.97" height="15" as="geometry" />
        </mxCell>
        <mxCell id="WyHW8iZcDk4O4yjpzm6--93" value="" style="shape=image;imageAspect=0;aspect=fixed;verticalLabelPosition=bottom;verticalAlign=top;image=data:image/png,iVBORw0KGgoAAAANSUhEUgAAADwAAABSCAYAAAAIArdYAAAABHNCSVQICAgIfAhkiAAAABl0RVh0U29mdHdhcmUAZ25vbWUtc2NyZWVuc2hvdO8Dvz4AAAAudEVYdENyZWF0aW9uIFRpbWUAV2VkIDMwIEp1bCAyMDI1IDAyOjU3OjMzIFBNIENFU1QXZaq5AAAEOUlEQVR4nO1bbU/bVhR+rl+ABAgUaKHNooaVqjCmttJaqeqXfduf3qZp1TZpraCsL6PQ0DW0liAZTQU0JHbsuw8ptq/jkBf72uu9eaR88GP7nvP4XB+fe65CXhoWhURQ0nYgaUgnWJNqPssY4ZFg0aFBspdYugiPBIsO6QRr1M1aBAT4fCQu54swDVwkJheY0mHfKLG4gGAScqFYnOwRFh9twez7DZE57f/mEG9O0iktEVJv8RyUt3F8dMBwubklLBXXuNjTuIzaJz5WDbz9+zEodRheUVQAfASnNqXtloXyqycdYnkjHcGUYn93E/WTWuKmUxFcq7zDYXk7DdPJC7ZbFvZ3N0FpO10SElb38kPCgilKfz1ipnI2Nw9VG0vMg0QF1yoGatX3nnFVR3HtfqJRTkyw3bKw9/w3UMfLyteWv0FmajYpF4Bg4UECpWhcHKUO3rz4A1bzzD2nj2eweH011KmwsjguX5hGPK9V6fHRAY4Oyi6vqBpW7n4PfSwLy2yE3AnQkAHj8IX7lDYbn7Cz8TOoY7vcYuEWZuau8jYdCu6C93c34dgt93hiModrN27zNtsVXAV/rBr41yi5x6qqY+3eD9DHJniavRDcBDfqJ9h79ojhFq+vYiwzxctkX+AimFIKo7TFJKTp2Sso3Pwu8coqCC6CK/uvUDX2PCOqhuL6AxAlXbEAoMT9KTKbdRhvnjNn8yt3kM3N97w3DHH7p8XZ7qbUQWnrV5iNTy43u5BH/uvOrNxvrONux8fa4jl8t4vjD167hhAFhdX7F0azW2R4tZ40b2j/8xicMxt1GKUt9wxRFCyvP0R2+lKPe3shHv/OEUvSchwbOxs/MrVybv4qFvI3hhyRX2vRV0sPnwqq71/jzLfG1cczKK49aO/KMkVxWIEcZiN4XzT//JwXYULaP8Zub65RP0F5+0+mg7G8/hATk7n+xgsFHcqXfjhPMKWdD6cH5zg2/nnxO7PGnVsqYmYh3/943TCgL/1ygb70YFPktFZhsjIAOI7TUVJeBOrYsG2L4U5qFbze+oXhJrI5fHXzLggJpp3BfI7UiDd9SeoctcNy6LUDjXt2ig9npww3NXMZdOVOf2/EBUh9q2VQRPU3UoQJUaCqeiQHKCizXj4ft73d4kFRVdABKrRuIE/LzaEfmt2yYDbrkRywzSZ2Nn6C3TJdbvZKAYVb95jrFEXFeAxLy0gRVjUdGW0mkgOW3uhYMqqajsxktHG7Qbr94ZFg0SGdYC3CSiserhditusWHoR2+pEE11U45WPX/Szx2mbpxSmqhqXlb+HY3s5EdvpSZ/0fk12y+Xb4wuNLhHRJayRYdIwEi46RYNHxxbV4okK6CEsqOGw3RFBOc/dwqG8NJTAn3ZT2dS3TWiAmy/kiTELa3OJxzN9pOyEe57V4Pp9gugMCcqm3eJLmpMvSI8Gi4z8fwJkP1j7JXQAAAABJRU5ErkJggg==;flipV=1;" vertex="1" parent="1">
          <mxGeometry x="617.78" y="696" width="10.95" height="14.96" as="geometry" />
        </mxCell>
        <mxCell id="WyHW8iZcDk4O4yjpzm6--94" value="" style="shape=image;imageAspect=0;aspect=fixed;verticalLabelPosition=bottom;verticalAlign=top;image=data:image/png,iVBORw0KGgoAAAANSUhEUgAAADwAAABSCAYAAAAIArdYAAAABHNCSVQICAgIfAhkiAAAABl0RVh0U29mdHdhcmUAZ25vbWUtc2NyZWVuc2hvdO8Dvz4AAAAudEVYdENyZWF0aW9uIFRpbWUAV2VkIDMwIEp1bCAyMDI1IDAyOjU4OjI2IFBNIENFU1TApBu5AAAF+0lEQVR4nO1bW1PbRhT+dnXz3QbHhlCThIZbp5kQmqQvzUw6mfah/7gvnTadzjRppwEyUyBAUjCGcIkNvsjWfftgbrKUBCzZeGR/T/B5dfZ82tXunnMk8u+OztBHoNftQLcxEBx0DAQHHQPBQQffV5twP47wQHDQwaPPHuK+G+GB4KCj7wTzAE7WrdPVi4AEmKN2ovl3kDlqJ85/CCpHAeLSMLhcP45wf6Ep+PRG2J/vQHK8o1EPOukn13dTmr+ujg1dg6ErsCwLvCCBFyRQ2vn735UUD2MW5MoRyoc7KBd3USt/gGnotjaEEIQiCcSHskhlxxFL3oAUjvruC3m9rXVUs1Kv4s0/v0CpV2CZ5mXdAi8IyI5P49bMIxDitse2h44JZoxhb3MZ2+uLMA2tbTuxVAaT958gHEv54ldnHhrGsJ9/g63Vv13FUsqB40UIYgiCFAYvSuA49+WkdnyItcXnsKzLzo5PoyOL1tFhAZvLL8CYffIQSjE2cQ/DI7fAiyEIYgiUcjANHZpaR6N2jMLGEurVI9t19UoJb1//gakHTz375r9gxrC9tuAQG09lMf3wGUQp7HRClMCLEiLxISTTY1hb/A3lD7u2NqX9PORKCdHEsCf3fJ/Sxx92IFeKDv7u3BNXsa3gRQnT898jFE3aeMs0UC3te/bPd8GFjSXb/4QQfPX4R4RbBHwKvCAhffOOgz8u7rq2vwp8FWwaOhS5YuN4MYRYKntlW+lRp2CtUfPkH+wpnnOQNjkGhpHbs9CUOgxdhaGpEKQwKMdd2Z7bNmRoKpgH/wCAZy67cLvRJseJyE3Ou7R0Nr5sHxdBOR5g3iLkng0eNKXu4KRI3LPdnhVc2tt0cIn0Tc92e1KwoWs4KKzbOEo5JIZHPNu+tvDwY9A1BesLv6JRO7bxqew4ovG0Z/s9IZgxBk2R0ZDL2Fp+iYZctv0eS2UwNfcUxId4uauCGWMovn8HTZGBk9FU6zXIlSIMXYNp6kDLthFNpjHz8AdfxOKiYOaSxfWdO4miqkefPiJSjkcyPYb02ATSo3dACPXNlzPB15Uqb0X21gzGJ+dBOR4cz59d5Ve/XX2L5zJ9HeTf4LCwASkUQTSVQW5qHqFIwjcfLjzDp+5cvB8+cwSID2XBCWKzBbNgGQZMQ4OuKdDVRpO3TCj1KpR6FcXdd/hicg5jd+dOknzefCGL+dMUTxcEt3KMgTGrKdyyoNarKKwv4PiwABsIQWJ4FLOPfgShnEfBW2o3Z/VnwQAc7+fx3/KfZyOOkzBzfPohbk7c82SfojUjSAiukyMAhkZuYfqbZ7atiDGG7bVX0DXFUx/UsZIwl3DkGrhYMoOxltFkzMJ+ftVTHz1dLk3eyDkOHJXSHhhzy2AGoFzKixIo4WycoalgltW+TT9XLF2tQ23UYGjqWcYjkR5FJNHeoZ8Q4nJsssAuuae7wdez9EF+DTtvF21cJjeFiXvftWXPNA1HupdyvHMxugJ8ndLRZNpxuJMrxSvUlOzQGrKj4sAJIghp321fBYeiSUfJRK1XoTaqV7bFGMP+1oojeoqlsp6Ka/4KjsQRjtnzz6ahY/Wvn22HiMvgIL+CskseOpXNefLR31WaEIzPPgal9pVV1xS8XXqOWvnwsyYYs3BYWMNOS0IfJweSWDLjzcWFDhwtN5df4CC/6tIbQSY3hdzkg+ZzSOjZ9GSWhUrpPXY2ltCoHTku5XgBs9/+5Lm21BHBhqZgY+l3VD5SGiGEgHICOI4H4TgQkOY2pquu7SnHY3LuKZKZnOfi+LlgnwMjyzSxtfISpb1NTwXxUCSO8ZlHGMre9sU/srCp2tZB0tLGE8cYFLmMrZUXqJT2LinxHKN3vsbYl/fBCZJv/pFXm90JDxW5jErxPRS5DEUuw9BVmKYOy7JAaTOdwwsSQtEUwrEEkjdyEEP+v9TStaxlKJp01HyvAz0dPHQCA8FBx0Bw0DEQHHQMPpgOOvpUcA98i9At7sJHHqc1tQtxVQC5vpvSvEsBxqVZcDiXbw+Jy4sDweFcpnRvjYjf3P84pVn3tyY3XQAAAABJRU5ErkJggg==;flipV=1;" vertex="1" parent="1">
          <mxGeometry x="584.72" y="697.53" width="10.57" height="14.43" as="geometry" />
        </mxCell>
      </root>
    </mxGraphModel>
  </diagram>
</mxfile>
